<?xml version="1.0" encoding="UTF-8"?>
<!DOCTYPE svg PUBLIC "-//W3C//DTD SVG 1.1//EN" "http://www.w3.org/Graphics/SVG/1.1/DTD/svg11.dtd">
<!-- Creator: CorelDRAW -->
<svg xmlns="http://www.w3.org/2000/svg" xml:space="preserve" width="168.303mm" height="44.6624mm" style="shape-rendering:geometricPrecision; text-rendering:geometricPrecision; image-rendering:optimizeQuality; fill-rule:evenodd; clip-rule:evenodd"
viewBox="0 0 71.1396 18.8783"
 xmlns:xlink="http://www.w3.org/1999/xlink">
 <defs>
  <style type="text/css">
   <![CDATA[
    .fil4 {fill:none}
    .fil8 {fill:none;fill-rule:nonzero}
    .fil2 {fill:#FEFEFE}
    .fil7 {fill:teal}
    .fil1 {fill:#D9DADA}
    .fil3 {fill:#E3E3E3}
    .fil5 {fill:#088D8D;fill-rule:nonzero}
    .fil0 {fill:#434242;fill-rule:nonzero}
    .fil6 {fill:teal;fill-rule:nonzero}
   ]]>
  </style>
    <clipPath id="id0">
     <path d="M12.1291 2.05706c4.75056,2.74279 4.03,1.49463 4.03,6.9802 0,5.48549 0.720558,4.23746 -4.03,6.98024 -4.75056,2.74266 -3.30944,2.7427 -8.06005,0 -4.75056,-2.74283 -4.03004,-1.49463 -4.03004,-6.98024 0,-5.48549 -0.720516,-4.23746 4.03004,-6.9802 4.75056,-2.7427 3.30944,-2.74274 8.06005,0z"/>
    </clipPath>
    <clipPath id="id1" style="clip-rule:nonzero">
     <path d="M7.89799 10.1914l-1.63809 -0.446698c-0.764433,-0.218446 -1.28071,-0.52126 -1.54873,-0.908443 -0.268069,-0.387183 -0.402062,-0.898468 -0.402062,-1.53385 0,-0.714809 0.263082,-1.25589 0.789245,-1.62321 0.526163,-0.367317 1.4147,-0.550975 2.66565,-0.550975 1.47924,0 2.75001,0.109181 3.81232,0.327584l-0.193634 1.81684 -2.93367 0c-0.536139,0 -0.856283,0.00739706 -0.960518,0.022318 -0.104277,0.0148787 -0.156353,0.0669962 -0.156353,0.156353 0,0.0893565 0.16878,0.173725 0.506297,0.253148 0.148913,0.0397328 0.273015,0.0744778 0.372304,0.104235l1.71257 0.431904c0.685052,0.188604 1.18391,0.454179 1.49666,0.796684 0.312705,0.342505 0.469058,0.826484 0.469058,1.45198 0,0.933213 -0.270521,1.57604 -0.811605,1.92848 -0.541084,0.352438 -1.4718,0.528657 -2.79224,0.528657 -1.37002,0 -2.66066,-0.104235 -3.87187,-0.312748l0.193634 -1.81676 2.65072 0c0.734633,0 1.18636,-0.00993319 1.35514,-0.0297996 0.16878,-0.0198664 0.253191,-0.084411 0.253191,-0.193592 0,-0.0198664 -0.00249387,-0.0372389 -0.0074816,-0.0521176 -0.00494546,-0.0148787 -0.0148787,-0.0297996 -0.0297573,-0.0446782 -0.0149209,-0.0148787 -0.0297996,-0.0273057 -0.0446782,-0.0371966 -0.0149209,-0.00997546 -0.0372389,-0.0223602 -0.0669962,-0.0372812 -0.0297996,-0.0148787 -0.0620507,-0.0247696 -0.0967958,-0.0297573 -0.034745,-0.00498773 -0.0794233,-0.0173725 -0.134035,-0.0372389 -0.0546114,-0.0198241 -0.106729,-0.034745 -0.156395,-0.0446782 -0.0496237,-0.00993319 -0.114126,-0.0273057 -0.193549,-0.0521176 -0.0794233,-0.0248118 -0.158889,-0.0471298 -0.238312,-0.0670385z"/>
    </clipPath>
 </defs>
 <g id="Layer_x0020_1">
  <metadata id="CorelCorpID_0Corel-Layer"/>
  <g id="_228567408">
   <path id="_89675040" class="fil0" d="M26.4507 10.5944l-1.8272 -0.490192c-0.673428,-0.198072 -1.13889,-0.467959 -1.3964,-0.809619 -0.257502,-0.34166 -0.386211,-0.814564 -0.386211,-1.41867 0,-0.762573 0.235184,-1.3023 0.705595,-1.61924 0.470411,-0.31689 1.27508,-0.475356 2.41398,-0.475356 1.31718,0.0197818 2.44619,0.113872 3.38701,0.282229l-0.148575 1.41127c-1.24782,-0.0198241 -2.18864,-0.029715 -2.82246,-0.029715 -0.346647,0 -0.586777,0.0024516 -0.720473,0.00743933 -0.133697,0.00494546 -0.267435,0.0222757 -0.401132,0.0519907 -0.133697,0.029715 -0.21536,0.0767181 -0.245075,0.141094 -0.029715,0.0643755 -0.0445937,0.16096 -0.0445937,0.289711 0,0.0494969 0.00249387,0.0940483 0.00743933,0.133697 0.00494546,0.039606 0.0173302,0.0767181 0.0371544,0.111379 0.0197818,0.0346605 0.0371121,0.0619239 0.0519907,0.0817058 0.0148364,0.0198241 0.0420576,0.0420998 0.0817058,0.0668694 0.039606,0.0247696 0.0717726,0.0420998 0.0965422,0.0519907 0.0247696,0.00989092 0.069321,0.0272212 0.133697,0.0519907 0.0643755,0.0247696 0.113872,0.0420998 0.148575,0.0519907 0.0346605,0.00989092 0.0989938,0.0272212 0.193084,0.0519907 0.0940906,0.0247696 0.165905,0.0420998 0.215402,0.0519907l1.87175 0.505071c0.653646,0.188181 1.11911,0.438244 1.3964,0.750188 0.277326,0.311987 0.415968,0.774958 0.415968,1.389 0,0.8715 -0.252557,1.46322 -0.757628,1.77517 -0.505071,0.311987 -1.37163,0.467959 -2.59966,0.467959 -1.18843,0 -2.28273,-0.0841996 -3.28298,-0.252557l0.133697 -1.42607c0.356496,0.0197818 1.20327,0.0296728 2.54023,0.0296728 0.762573,0 1.2602,-0.0321666 1.49294,-0.0965422 0.232733,-0.0643755 0.349099,-0.215402 0.349099,-0.45308 0,-0.0495392 -0.0024516,-0.0940906 -0.00743933,-0.133697 -0.00494546,-0.039606 -0.0173302,-0.0767603 -0.0371121,-0.111421 -0.0198241,-0.0346605 -0.039606,-0.0618817 -0.0594301,-0.0817058 -0.0198241,-0.0198241 -0.0519907,-0.0420998 -0.0965422,-0.0668271 -0.0445937,-0.0247696 -0.0792542,-0.0445937 -0.104024,-0.0594301 -0.0247273,-0.0148787 -0.0717726,-0.0346605 -0.141094,-0.0594301 -0.069321,-0.0247696 -0.123806,-0.0420998 -0.163412,-0.0519907 -0.039606,-0.00989092 -0.108927,-0.0272212 -0.207963,-0.0519907 -0.099036,-0.0247696 -0.173345,-0.0470453 -0.222842,-0.0668694z"/>
   <path id="_896750401" class="fil0" d="M31.2174 2.75082l0.980427 0c0.425859,0 0.638768,0.212908 0.638768,0.638768l0 0.802179c0,0.425859 -0.212908,0.638768 -0.638768,0.638768l-0.980427 0c-0.425859,0 -0.638768,-0.212908 -0.638768,-0.638768l0 -0.802179c0,-0.425859 0.212908,-0.638768 0.638768,-0.638768zm1.58952 10.5621l-2.18374 0 0 -7.32364 2.18374 0 0 7.32364z"/>
   <path id="_8967504012" class="fil0" d="M37.0538 7.45991l0 3.46127c0,0.277326 0.0594301,0.470411 0.178248,0.57938 0.11886,0.108927 0.326823,0.163369 0.623931,0.163369l0.935876 0 0.237678 1.53009c-0.564501,0.198072 -1.25277,0.297108 -2.06488,0.297108 -0.663537,0 -1.1785,-0.185687 -1.54493,-0.557062 -0.366429,-0.371375 -0.549665,-0.88883 -0.549665,-1.55237l0 -3.92179 -1.29241 0 0 -1.3964 1.29241 -0.0742665 0 -2.05 2.18374 0 0 2.05 2.03516 0 0 1.47066 -2.03516 0z"/>
   <path id="_89675040123" class="fil0" d="M44.5094 10.3864l-2.64422 0c0.069321,0.534786 0.230239,0.893776 0.482795,1.07701 0.252514,0.183193 0.670977,0.274832 1.25526,0.274832 0.782397,0 1.6935,-0.0544846 2.73336,-0.163412l0.207963 1.36668c-0.762573,0.366429 -1.8272,0.549623 -3.19388,0.549623 -1.37657,0 -2.357,-0.297108 -2.94132,-0.891282 -0.584283,-0.594216 -0.876446,-1.57469 -0.876446,-2.94137 0,-1.436 0.284723,-2.4412 0.85417,-3.01559 0.569447,-0.574434 1.5276,-0.861609 2.8745,-0.861609 1.21811,0 2.09954,0.210457 2.64422,0.631328 0.544719,0.420914 0.822003,1.06218 0.831894,1.92378 0,0.683319 -0.175796,1.19583 -0.527347,1.53749 -0.351593,0.341702 -0.918545,0.51251 -1.70094,0.51251zm-2.68877 -1.32213l2.07971 0c0.267393,0 0.448135,-0.0643333 0.542225,-0.193084 0.0940906,-0.128751 0.141094,-0.316932 0.141094,-0.564501 0,-0.346647 -0.0891028,-0.586777 -0.267393,-0.720473 -0.178248,-0.133697 -0.505071,-0.200566 -0.980427,-0.200566 -0.564501,0 -0.950754,0.111421 -1.15872,0.334262 -0.207963,0.222799 -0.326823,0.670934 -0.356496,1.34436z"/>
   <path id="_896750401234" class="fil0" d="M49.4544 5.98925l0.148533 1.06957c0.93093,-0.851676 1.86186,-1.27754 2.79279,-1.27754 0.99036,0 1.61924,0.396144 1.88663,1.18843 0.861609,-0.792288 1.75289,-1.18843 2.67393,-1.18843 0.663537,0 1.16861,0.173302 1.51526,0.519907 0.346605,0.346647 0.519907,0.851718 0.519907,1.51526l0 5.49644 -2.1837 0 0 -4.81312c0,-0.31689 -0.0544846,-0.539732 -0.163412,-0.668483 -0.108969,-0.128709 -0.311987,-0.193084 -0.609095,-0.193084 -0.237678,0 -0.465465,0.0445514 -0.683319,0.133697 -0.217896,0.0891028 -0.534786,0.262448 -0.950754,0.519907l0 5.02108 -2.10943 0 0 -4.81312c0,-0.31689 -0.0618817,-0.539732 -0.185687,-0.668483 -0.123806,-0.128709 -0.324329,-0.193084 -0.601656,-0.193084 -0.386211,0 -0.925943,0.212908 -1.61919,0.638768l0 5.03592 -2.18374 0 0 -7.32364 1.75293 0z"/>
   <path id="_8967504012345" class="fil0" d="M60.9358 2.75082l0.980427 0c0.425859,0 0.638768,0.212908 0.638768,0.638768l0 0.802179c0,0.425859 -0.212908,0.638768 -0.638768,0.638768l-0.980427 0c-0.425859,0 -0.638768,-0.212908 -0.638768,-0.638768l0 -0.802179c0,-0.425859 0.212908,-0.638768 0.638768,-0.638768zm1.58952 10.5621l-2.18374 0 0 -7.32364 2.18374 0 0 7.32364z"/>
   <path id="_89675040123456" class="fil0" d="M67.3812 5.78129c1.36668,0 2.33476,0.294614 2.90421,0.883885 0.569447,0.589271 0.85417,1.58703 0.85417,2.99331 0,1.40633 -0.284723,2.39914 -0.85417,2.97848 -0.569447,0.57938 -1.53753,0.869049 -2.90421,0.869049 -1.37657,0 -2.3496,-0.289669 -2.91905,-0.869049 -0.569447,-0.579338 -0.85417,-1.57215 -0.85417,-2.97848 0,-1.41618 0.284723,-2.41643 0.85417,-3.00075 0.569447,-0.584283 1.54248,-0.876446 2.91905,-0.876446zm0 1.64891c-0.584283,0 -0.975482,0.148575 -1.17355,0.445683 -0.198072,0.297108 -0.297108,0.891324 -0.297108,1.78261 0,0.8715 0.099036,1.45583 0.297108,1.75293 0.198072,0.297108 0.589271,0.445641 1.17355,0.445641 0.564501,0 0.94826,-0.148533 1.15128,-0.445641 0.203018,-0.297108 0.304547,-0.881433 0.304547,-1.75293 0,-0.881391 -0.099036,-1.47311 -0.297108,-1.77521 -0.198072,-0.302054 -0.584325,-0.45308 -1.15872,-0.45308z"/>
   <path id="_228566712" class="fil0" d="M35.9174 17.3978l-0.534448 -0.101107c-0.137205,-0.0264603 -0.236494,-0.0764222 -0.297869,-0.149843 -0.0614167,-0.0734211 -0.0921039,-0.182348 -0.0921039,-0.326823 0,-0.197396 0.0499618,-0.326781 0.149843,-0.388155 0.0999237,-0.0613744 0.27386,-0.0908781 0.52181,-0.0884688 0.264815,0.00481865 0.503127,0.0228675 0.714978,0.0541465l-0.0216839 0.166117c-0.288866,-0.014456 -0.510355,-0.0216839 -0.664425,-0.0216839 -0.192577,-0.00240933 -0.320145,0.0114549 -0.382745,0.0415503 -0.0626002,0.0300955 -0.0938792,0.108927 -0.0938792,0.236494 0,0.0986979 0.0204581,0.167343 0.0613744,0.20585 0.0409163,0.038507 0.109519,0.0674189 0.20585,0.0866512l0.537999 0.101107c0.139656,0.0289119 0.241947,0.0788315 0.306957,0.149843 0.0650096,0.071054 0.0974721,0.177572 0.0974721,0.319595 0,0.204624 -0.0547382,0.338236 -0.164299,0.400836 -0.109519,0.062558 -0.296685,0.0938792 -0.5615,0.0938792 -0.238312,0 -0.460985,-0.0156395 -0.668018,-0.0469607l0.0180488 -0.16971c0.190168,0.0168653 0.393608,0.0240933 0.610278,0.0216839 0.214219,-0.00240933 0.35806,-0.0222757 0.431481,-0.0595991 0.0734211,-0.0373234 0.110153,-0.117338 0.110153,-0.24013 0,-0.0938792 -0.0228675,-0.160072 -0.0686024,-0.198622 -0.0457349,-0.038507 -0.117972,-0.0673766 -0.21667,-0.0866512z"/>
   <path id="_2285667121" class="fil0" d="M37.0206 16.551c0.121565,-0.138431 0.32919,-0.207625 0.622875,-0.207625 0.293727,0 0.50076,0.0691942 0.621099,0.207625 0.120382,0.138431 0.180573,0.376151 0.180573,0.713161 0,0.337052 -0.0601909,0.574138 -0.180573,0.711386 -0.12034,0.137205 -0.327373,0.205807 -0.621099,0.205807 -0.293684,0 -0.501309,-0.0691942 -0.622875,-0.207625 -0.121565,-0.138431 -0.182348,-0.374925 -0.182348,-0.709568 0,-0.33701 0.0607827,-0.57473 0.182348,-0.713161zm1.06344 0.14625c-0.0818749,-0.103517 -0.228717,-0.155296 -0.440569,-0.155296 -0.211809,0 -0.358694,0.0517794 -0.440526,0.155296 -0.0818326,0.103517 -0.122791,0.292501 -0.122791,0.56691 0,0.274452 0.0409586,0.463436 0.122791,0.566953 0.0818326,0.103474 0.228717,0.155254 0.440526,0.155254 0.211852,0 0.358694,-0.0517794 0.440569,-0.155254 0.0818326,-0.103517 0.122749,-0.292501 0.122749,-0.566953 0,-0.27441 -0.0409163,-0.463394 -0.122749,-0.56691z"/>
   <path id="_22856671212" class="fil0" d="M40.034 15.744l-0.375559 0c-0.125158,0 -0.213035,0.0252768 -0.263589,0.0758304 -0.0505536,0.0505536 -0.0758304,0.135979 -0.0758304,0.256361l0 0.314142 0.588594 0 0 0.180573 -0.588594 0 0 1.56716 -0.231084 0 0 -1.56716 -0.314185 0 0 -0.162482 0.314185 -0.0180911 0 -0.335826c0,-0.166075 0.0379152,-0.291275 0.113746,-0.375517 0.0758304,-0.0842419 0.20158,-0.126384 0.377334,-0.126384 0.178121,0 0.334601,0.00722798 0.469438,0.0216417l-0.014456 0.169752z"/>
   <path id="_228566712123" class="fil0" d="M41.1931 17.9575l0.0288697 0.173302c-0.120382,0.0240933 -0.241947,0.0360976 -0.364696,0.0360976 -0.288908,0 -0.433341,-0.145616 -0.433341,-0.436891l0 -1.15914 -0.317778 0 0 -0.162482 0.317778 -0.0180911 0 -0.530813 0.227491 0 0 0.530813 0.59223 0 0 0.180573 -0.59223 0 0 1.13386c0,0.168484 0.0854677,0.252768 0.256403,0.252768l0.285273 0z"/>
   <path id="_2285667121234" class="fil0" d="M44.1938 16.3903l-0.545269 1.67913c-0.014456,0.0457349 -0.0457349,0.0686024 -0.0938792,0.0686024l-0.213035 0c-0.0505536,0 -0.0818749,-0.0252768 -0.0939215,-0.0758304l-0.346647 -1.25302c-0.00963731,-0.0288697 -0.0216417,-0.0734211 -0.0360976,-0.133612 -0.014456,-0.0601909 -0.0252768,-0.105926 -0.0325048,-0.137205l-0.0397328 0 -0.0686024 0.270817 -0.343054 1.25302c-0.0120044,0.0505536 -0.0445092,0.0758304 -0.0974721,0.0758304l-0.209442 0c-0.0505536,0 -0.0818326,-0.0228675 -0.0938792,-0.0686024l-0.545269 -1.67913 0.238312 0 0.411657 1.33971c0.0120466,0.0409163 0.0349141,0.125158 0.0686024,0.252768l0.0469607 0 0.0686024 -0.252768 0.350282 -1.26748c0.0120044,-0.0481443 0.0420998,-0.0722375 0.0902441,-0.0722375l0.209442 0c0.0481443,0 0.0782397,0.0252768 0.0902864,0.0758304l0.350282 1.26388 0.0649673 0.252768 0.0505536 0c0.0361399,-0.139656 0.0577816,-0.223898 0.0650096,-0.252768l0.41525 -1.33971 0.238354 0z"/>
   <path id="_22856671212345" class="fil0" d="M44.5947 16.5925l-0.0216839 -0.16971c0.349057,-0.0529629 0.629511,-0.0794233 0.841362,-0.0794233 0.187758,0 0.328007,0.0415081 0.42066,0.124566 0.0926957,0.0830584 0.139022,0.220855 0.139022,0.413474l0 1.25661 -0.18053 0 -0.0288697 -0.306914c-0.0866935,0.0866512 -0.199213,0.164299 -0.337644,0.232902 -0.138431,0.0686024 -0.281046,0.102883 -0.427888,0.102883 -0.15407,0 -0.275635,-0.0409163 -0.364738,-0.122749 -0.0890606,-0.0818749 -0.133612,-0.198622 -0.133612,-0.350282l0 -0.202214c0,-0.134796 0.0397328,-0.239538 0.119198,-0.314142 0.0794233,-0.0746469 0.192577,-0.111928 0.339419,-0.111928l0.783581 0 0 -0.184166c0,-0.115563 -0.0270944,-0.201031 -0.0812408,-0.256403 -0.0541887,-0.0553723 -0.151069,-0.0830584 -0.290683,-0.0830584 -0.207033,0 -0.465803,0.0168653 -0.776353,0.0505536zm0.137205 0.928056l0 0.151661c0,0.194986 0.102291,0.292459 0.306914,0.292459 0.105926,0.00240933 0.22449,-0.0234592 0.355693,-0.0776057 0.131203,-0.0541887 0.247358,-0.127018 0.348465,-0.218488l0 -0.418885 -0.747483 0c-0.175712,0.00722798 -0.263589,0.0975144 -0.263589,0.270859z"/>
   <path id="_228566712123456" class="fil0" d="M47.6171 16.3434l-0.0289119 0.21667 -0.0866512 0c-0.101107,0 -0.203398,0.0210499 -0.306914,0.063192 -0.103517,0.0420998 -0.235945,0.111336 -0.397243,0.207625l0 1.30717 -0.231084 0 0 -1.74773 0.176938 0 0.0252768 0.288908c0.286456,-0.223898 0.544043,-0.335826 0.77276,-0.335826l0.0758304 0z"/>
   <path id="_2285667121234567" class="fil0" d="M49.0145 17.3761l-0.873867 0c0.014456,0.231126 0.0674189,0.390015 0.158889,0.476666 0.0914699,0.0866512 0.240721,0.130019 0.447754,0.130019 0.180573,0 0.381561,-0.014456 0.60305,-0.0433679l0.0252768 0.155296c-0.149251,0.0577816 -0.369515,0.0866512 -0.660832,0.0866512 -0.293684,0 -0.502535,-0.07042 -0.62651,-0.211218 -0.123975,-0.14084 -0.185941,-0.37856 -0.185941,-0.713203 0,-0.33701 0.0601909,-0.573547 0.18053,-0.709526 0.120382,-0.136021 0.32137,-0.204032 0.60305,-0.204032 0.247949,0 0.430889,0.0451432 0.548862,0.135387 0.117972,0.0902864 0.178163,0.226899 0.18053,0.409882 0.00481865,0.324963 -0.128751,0.487445 -0.400794,0.487445zm-0.873867 -0.18053l0.819678 0c0.15407,0 0.228717,-0.101107 0.223898,-0.303322 -0.00240933,-0.122791 -0.0421421,-0.211852 -0.119156,-0.267224 -0.0770562,-0.0553723 -0.199805,-0.0830584 -0.368331,-0.0830584 -0.204624,0 -0.347873,0.0475525 -0.429706,0.142658 -0.0818326,0.0950628 -0.123975,0.265406 -0.126384,0.510946z"/>
   <path id="_22856671212345678" class="fil0" d="M51.6217 17.9575l0.0288697 0.173302c-0.120382,0.0240933 -0.241947,0.0360976 -0.364696,0.0360976 -0.288908,0 -0.433341,-0.145616 -0.433341,-0.436891l0 -1.15914 -0.317778 0 0 -0.162482 0.317778 -0.0180911 0 -0.530813 0.227491 0 0 0.530813 0.59223 0 0 0.180573 -0.59223 0 0 1.13386c0,0.168484 0.0854677,0.252768 0.256403,0.252768l0.285273 0z"/>
   <path id="_228566712123456789" class="fil0" d="M53.0913 17.3761l-0.873867 0c0.014456,0.231126 0.0674189,0.390015 0.158889,0.476666 0.0914699,0.0866512 0.240721,0.130019 0.447754,0.130019 0.180573,0 0.381561,-0.014456 0.60305,-0.0433679l0.0252768 0.155296c-0.149251,0.0577816 -0.369515,0.0866512 -0.660832,0.0866512 -0.293684,0 -0.502535,-0.07042 -0.62651,-0.211218 -0.123975,-0.14084 -0.185941,-0.37856 -0.185941,-0.713203 0,-0.33701 0.0601909,-0.573547 0.18053,-0.709526 0.120382,-0.136021 0.32137,-0.204032 0.60305,-0.204032 0.247949,0 0.430889,0.0451432 0.548862,0.135387 0.117972,0.0902864 0.178163,0.226899 0.18053,0.409882 0.00481865,0.324963 -0.128751,0.487445 -0.400794,0.487445zm-0.873867 -0.18053l0.819678 0c0.15407,0 0.228717,-0.101107 0.223898,-0.303322 -0.00240933,-0.122791 -0.0421421,-0.211852 -0.119156,-0.267224 -0.0770562,-0.0553723 -0.199805,-0.0830584 -0.368331,-0.0830584 -0.204624,0 -0.347873,0.0475525 -0.429706,0.142658 -0.0818326,0.0950628 -0.123975,0.265406 -0.126384,0.510946z"/>
   <path id="_22856671212345678910" class="fil0" d="M55.2723 17.9431l0.0252768 0.158889c-0.178163,0.0529629 -0.368331,0.0794233 -0.570546,0.0794233 -0.300912,0 -0.512764,-0.0686024 -0.635513,-0.205807 -0.122791,-0.137247 -0.184166,-0.374333 -0.184166,-0.711386 0,-0.33701 0.0613744,-0.57473 0.184166,-0.713161 0.122749,-0.138431 0.334601,-0.207625 0.635513,-0.207625 0.214261,0 0.393608,0.0264603 0.538041,0.0794233l-0.0360976 0.148068c-0.12761,-0.0192746 -0.282863,-0.0289119 -0.465846,-0.0289119 -0.231084,0 -0.39179,0.0511876 -0.482035,0.153478 -0.0902864,0.102333 -0.13543,0.291909 -0.13543,0.568728 0,0.276861 0.0451432,0.465846 0.13543,0.566953 0.0902441,0.101107 0.25095,0.151661 0.482035,0.151661 0.202214,0 0.371966,-0.0132724 0.509171,-0.0397328z"/>
   <path id="_2285667121234567891011" class="fil0" d="M55.9801 15.6104l0 0.725799c0,0.139614 -0.00841151,0.252768 -0.0252768,0.339419 0.298503,-0.221447 0.56691,-0.332191 0.805265,-0.332191 0.15407,0 0.271409,0.0409163 0.352058,0.122749 0.0806491,0.0818749 0.120974,0.201031 0.120974,0.35751l0 1.31439 -0.231126 0 0 -1.25302c0,-0.122749 -0.0234592,-0.210626 -0.07042,-0.263589 -0.0469185,-0.0529629 -0.124566,-0.0794655 -0.232902,-0.0794655 -0.105926,0 -0.213035,0.0235015 -0.32137,0.07042 -0.108335,0.0469607 -0.243131,0.124609 -0.404429,0.232902l0 1.29275 -0.227491 0 0 -2.52768 0.234719 0z"/>
   <path id="_228566712123456789101112" class="fil0" d="M58.0203 16.3903l0.0180488 0.288908c0.291275,-0.223898 0.560908,-0.335826 0.808858,-0.335826 0.312959,0 0.469438,0.160072 0.469438,0.480259l0 1.31439 -0.227491 0 0 -1.25302c0,-0.122749 -0.0235015,-0.210626 -0.07042,-0.263589 -0.0469607,-0.0529629 -0.124566,-0.0794655 -0.232902,-0.0794655 -0.105926,0 -0.212443,0.0240933 -0.319595,0.0722375 -0.107109,0.0481443 -0.242539,0.1252 -0.406246,0.231084l0 1.29275 -0.231084 0 0 -1.74773 0.191394 0z"/>
   <path id="_22856671212345678910111213" class="fil0" d="M60.0082 16.551c0.121565,-0.138431 0.32919,-0.207625 0.622875,-0.207625 0.293727,0 0.50076,0.0691942 0.621099,0.207625 0.120382,0.138431 0.180573,0.376151 0.180573,0.713161 0,0.337052 -0.0601909,0.574138 -0.180573,0.711386 -0.12034,0.137205 -0.327373,0.205807 -0.621099,0.205807 -0.293684,0 -0.501309,-0.0691942 -0.622875,-0.207625 -0.121565,-0.138431 -0.182348,-0.374925 -0.182348,-0.709568 0,-0.33701 0.0607827,-0.57473 0.182348,-0.713161zm1.06344 0.14625c-0.0818749,-0.103517 -0.228717,-0.155296 -0.440569,-0.155296 -0.211809,0 -0.358694,0.0517794 -0.440526,0.155296 -0.0818326,0.103517 -0.122791,0.292501 -0.122791,0.56691 0,0.274452 0.0409586,0.463436 0.122791,0.566953 0.0818326,0.103474 0.228717,0.155254 0.440526,0.155254 0.211852,0 0.358694,-0.0517794 0.440569,-0.155254 0.0818326,-0.103517 0.122749,-0.292501 0.122749,-0.566953 0,-0.27441 -0.0409163,-0.463394 -0.122749,-0.56691z"/>
   <path id="_2285667121234567891011121314" class="fil0" d="M62.1838 15.6104l0 2.09438c0,0.168484 0.0854677,0.252768 0.256403,0.252768l0.184166 0 0.0252768 0.173302c-0.0650096,0.0240933 -0.161298,0.0360976 -0.288866,0.0360976 -0.1252,0 -0.223898,-0.0366894 -0.296136,-0.11011 -0.0721953,-0.0734211 -0.108335,-0.176346 -0.108335,-0.308732l0 -2.13771 0.227491 0z"/>
   <path id="_228566712123456789101112131415" class="fil0" d="M63.0847 16.551c0.121565,-0.138431 0.32919,-0.207625 0.622875,-0.207625 0.293727,0 0.50076,0.0691942 0.621099,0.207625 0.120382,0.138431 0.180573,0.376151 0.180573,0.713161 0,0.337052 -0.0601909,0.574138 -0.180573,0.711386 -0.12034,0.137205 -0.327373,0.205807 -0.621099,0.205807 -0.293684,0 -0.501309,-0.0691942 -0.622875,-0.207625 -0.121565,-0.138431 -0.182348,-0.374925 -0.182348,-0.709568 0,-0.33701 0.0607827,-0.57473 0.182348,-0.713161zm1.06344 0.14625c-0.0818749,-0.103517 -0.228717,-0.155296 -0.440569,-0.155296 -0.211809,0 -0.358694,0.0517794 -0.440526,0.155296 -0.0818326,0.103517 -0.122791,0.292501 -0.122791,0.56691 0,0.274452 0.0409586,0.463436 0.122791,0.566953 0.0818326,0.103474 0.228717,0.155254 0.440526,0.155254 0.211852,0 0.358694,-0.0517794 0.440569,-0.155254 0.0818326,-0.103517 0.122749,-0.292501 0.122749,-0.566953 0,-0.27441 -0.0409163,-0.463394 -0.122749,-0.56691z"/>
   <path id="_22856671212345678910111213141516" class="fil0" d="M66.6217 16.5203l-0.292501 0.0216417c0.0674189,0.0818749 0.101107,0.201031 0.101107,0.35751 0,0.190168 -0.05533,0.328598 -0.166075,0.41525 -0.110745,0.0866512 -0.298503,0.130019 -0.563318,0.130019 -0.163707,0 -0.296094,-0.0156818 -0.397201,-0.0469607 -0.0361399,0.0457349 -0.0577816,0.0932875 -0.0650096,0.142658 -0.00722798,0.0493278 0.00541042,0.0950628 0.0379152,0.137205 0.0325048,0.0420998 0.0860595,0.0691942 0.160706,0.0812408l0.671611 0.111928c0.158889,0.0240933 0.269042,0.0734211 0.330416,0.148068 0.0613744,0.0746046 0.0920617,0.185349 0.0920617,0.332191 0,0.197396 -0.0595569,0.334643 -0.178713,0.411657 -0.119156,0.0770562 -0.330416,0.115563 -0.633738,0.115563 -0.30814,0 -0.522401,-0.0379152 -0.642741,-0.113746 -0.120382,-0.0758304 -0.180573,-0.21126 -0.180573,-0.406246 0,-0.115563 0.0216839,-0.207625 0.0650096,-0.276227 0.0433256,-0.0686024 0.120382,-0.131794 0.231084,-0.189576 -0.103517,-0.0650096 -0.153436,-0.155296 -0.149843,-0.270817 0.00359286,-0.115563 0.0511454,-0.207033 0.142615,-0.274452 -0.144433,-0.0794233 -0.216628,-0.228675 -0.216628,-0.447754 0,-0.194986 0.0553723,-0.336418 0.166075,-0.424295 0.110745,-0.087877 0.299729,-0.131794 0.566953,-0.131794 0.161298,0 0.290091,0.0156395 0.38638,0.0469185l0.548862 0 -0.014456 0.130019zm-1.32162 0.66079c0.0794655,0.0577816 0.213078,0.0866935 0.400836,0.0866935 0.187758,0 0.320187,-0.0289119 0.397201,-0.0866935 0.0770562,-0.0577816 0.115563,-0.151661 0.115563,-0.281638 0,-0.134796 -0.038507,-0.231126 -0.115563,-0.288866 -0.0770139,-0.0577816 -0.209442,-0.0866935 -0.397201,-0.0866935 -0.190168,0 -0.324414,0.0289119 -0.402654,0.0866935 -0.0781975,0.0577393 -0.117338,0.15407 -0.117338,0.288866 0,0.129977 0.0397328,0.223856 0.119156,0.281638zm0.0469607 0.761939l-0.014456 0.0108208c-0.0794233,0.0553723 -0.134796,0.110745 -0.166117,0.166117 -0.031279,0.0553723 -0.0469185,0.129977 -0.0469185,0.223856 0,0.132428 0.0420998,0.222081 0.126384,0.269042 0.0842419,0.0469185 0.241947,0.07042 0.473031,0.07042 0.226308,0 0.38097,-0.0240933 0.464028,-0.0722375 0.0830161,-0.0481443 0.124566,-0.137205 0.124566,-0.267224 0,-0.101107 -0.0198664,-0.171485 -0.0595991,-0.211218 -0.0396905,-0.0397328 -0.122157,-0.0692365 -0.247358,-0.0884688l-0.653562 -0.101107z"/>
   <path id="_2285667121234567891011121314151617" class="fil0" d="M67.1019 15.6537l0.1047 0c0.0505536,0 0.0758304,0.0252768 0.0758304,0.0758304l0 0.209442c0,0.0505536 -0.0252768,0.0758304 -0.0758304,0.0758304l-0.1047 0c-0.0505536,0 -0.0758304,-0.0252768 -0.0758304,-0.0758304l0 -0.209442c0,-0.0505536 0.0252768,-0.0758304 0.0758304,-0.0758304zm0.166117 2.48435l-0.227491 0 0 -1.74773 0.227491 0 0 1.74773z"/>
   <path id="_228566712123456789101112131415161718" class="fil0" d="M68.911 17.3761l-0.873867 0c0.014456,0.231126 0.0674189,0.390015 0.158889,0.476666 0.0914699,0.0866512 0.240721,0.130019 0.447754,0.130019 0.180573,0 0.381561,-0.014456 0.60305,-0.0433679l0.0252768 0.155296c-0.149251,0.0577816 -0.369515,0.0866512 -0.660832,0.0866512 -0.293684,0 -0.502535,-0.07042 -0.62651,-0.211218 -0.123975,-0.14084 -0.185941,-0.37856 -0.185941,-0.713203 0,-0.33701 0.0601909,-0.573547 0.18053,-0.709526 0.120382,-0.136021 0.32137,-0.204032 0.60305,-0.204032 0.247949,0 0.430889,0.0451432 0.548862,0.135387 0.117972,0.0902864 0.178163,0.226899 0.18053,0.409882 0.00481865,0.324963 -0.128751,0.487445 -0.400794,0.487445zm-0.873867 -0.18053l0.819678 0c0.15407,0 0.228717,-0.101107 0.223898,-0.303322 -0.00240933,-0.122791 -0.0421421,-0.211852 -0.119156,-0.267224 -0.0770562,-0.0553723 -0.199805,-0.0830584 -0.368331,-0.0830584 -0.204624,0 -0.347873,0.0475525 -0.429706,0.142658 -0.0818326,0.0950628 -0.123975,0.265406 -0.126384,0.510946z"/>
   <path id="_22856671212345678910111213141516171819" class="fil0" d="M70.6299 17.3978l-0.534448 -0.101107c-0.137205,-0.0264603 -0.236494,-0.0764222 -0.297869,-0.149843 -0.0614167,-0.0734211 -0.0921039,-0.182348 -0.0921039,-0.326823 0,-0.197396 0.0499618,-0.326781 0.149843,-0.388155 0.0999237,-0.0613744 0.27386,-0.0908781 0.52181,-0.0884688 0.264815,0.00481865 0.503127,0.0228675 0.714978,0.0541465l-0.0216839 0.166117c-0.288866,-0.014456 -0.510355,-0.0216839 -0.664425,-0.0216839 -0.192577,-0.00240933 -0.320145,0.0114549 -0.382745,0.0415503 -0.0626002,0.0300955 -0.0938792,0.108927 -0.0938792,0.236494 0,0.0986979 0.0204581,0.167343 0.0613744,0.20585 0.0409163,0.038507 0.109519,0.0674189 0.20585,0.0866512l0.537999 0.101107c0.139656,0.0289119 0.241947,0.0788315 0.306957,0.149843 0.0650096,0.071054 0.0974721,0.177572 0.0974721,0.319595 0,0.204624 -0.0547382,0.338236 -0.164299,0.400836 -0.109519,0.062558 -0.296685,0.0938792 -0.5615,0.0938792 -0.238312,0 -0.460985,-0.0156395 -0.668018,-0.0469607l0.0180488 -0.16971c0.190168,0.0168653 0.393608,0.0240933 0.610278,0.0216839 0.214219,-0.00240933 0.35806,-0.0222757 0.431481,-0.0595991 0.0734211,-0.0373234 0.110153,-0.117338 0.110153,-0.24013 0,-0.0938792 -0.0228675,-0.160072 -0.0686024,-0.198622 -0.0457349,-0.038507 -0.117972,-0.0673766 -0.21667,-0.0866512z"/>
  </g>
  <g id="_228565992">
   <path id="_228567288" class="fil1" d="M12.8385 2.67554c4.75056,2.74283 4.03004,1.49463 4.03004,6.98024 0,5.48549 0.720516,4.23746 -4.03004,6.9802 -4.75056,2.7427 -3.30944,2.74274 -8.06,0 -4.75056,-2.74279 -4.03004,-1.49463 -4.03004,-6.9802 0,-5.48549 -0.720516,-4.23746 4.03004,-6.98024 4.75056,-2.7427 3.30944,-2.7427 8.06,0z"/>
   <path id="_228566736" class="fil2" d="M12.1291 2.05706c4.75056,2.74279 4.03,1.49463 4.03,6.9802 0,5.48549 0.720558,4.23746 -4.03,6.98024 -4.75056,2.74266 -3.30944,2.7427 -8.06005,0 -4.75056,-2.74283 -4.03004,-1.49463 -4.03004,-6.98024 0,-5.48549 -0.720516,-4.23746 4.03004,-6.9802 4.75056,-2.7427 3.30944,-2.74274 8.06005,0z"/>
   <g style="clip-path:url(#id0)">
    <g>
     <polygon id="_2285676241" class="fil3" points="11.2792,8.89655 16.1482,15.2277 9.27375,18.6956 4.38337,12.5417 6.77059,11.8705 10.2075,12.0239 "/>
    </g>
   </g>
   <path class="fil4" d="M12.1291 2.05706c4.75056,2.74279 4.03,1.49463 4.03,6.9802 0,5.48549 0.720558,4.23746 -4.03,6.98024 -4.75056,2.74266 -3.30944,2.7427 -8.06005,0 -4.75056,-2.74283 -4.03004,-1.49463 -4.03004,-6.98024 0,-5.48549 -0.720516,-4.23746 4.03004,-6.9802 4.75056,-2.7427 3.30944,-2.74274 8.06005,0z"/>
   <path id="_228566040" class="fil5" d="M7.89799 10.1914l-1.63809 -0.446698c-0.764433,-0.218446 -1.28071,-0.52126 -1.54873,-0.908443 -0.268069,-0.387183 -0.402062,-0.898468 -0.402062,-1.53385 0,-0.714809 0.263082,-1.25589 0.789245,-1.62321 0.526163,-0.367317 1.4147,-0.550975 2.66565,-0.550975 1.47924,0 2.75001,0.109181 3.81232,0.327584l-0.193634 1.81684 -2.93367 0c-0.536139,0 -0.856283,0.00739706 -0.960518,0.022318 -0.104277,0.0148787 -0.156353,0.0669962 -0.156353,0.156353 0,0.0893565 0.16878,0.173725 0.506297,0.253148 0.148913,0.0397328 0.273015,0.0744778 0.372304,0.104235l1.71257 0.431904c0.685052,0.188604 1.18391,0.454179 1.49666,0.796684 0.312705,0.342505 0.469058,0.826484 0.469058,1.45198 0,0.933213 -0.270521,1.57604 -0.811605,1.92848 -0.541084,0.352438 -1.4718,0.528657 -2.79224,0.528657 -1.37002,0 -2.66066,-0.104235 -3.87187,-0.312748l0.193634 -1.81676 2.65072 0c0.734633,0 1.18636,-0.00993319 1.35514,-0.0297996 0.16878,-0.0198664 0.253191,-0.084411 0.253191,-0.193592 0,-0.0198664 -0.00249387,-0.0372389 -0.0074816,-0.0521176 -0.00494546,-0.0148787 -0.0148787,-0.0297996 -0.0297573,-0.0446782 -0.0149209,-0.0148787 -0.0297996,-0.0273057 -0.0446782,-0.0371966 -0.0149209,-0.00997546 -0.0372389,-0.0223602 -0.0669962,-0.0372812 -0.0297996,-0.0148787 -0.0620507,-0.0247696 -0.0967958,-0.0297573 -0.034745,-0.00498773 -0.0794233,-0.0173725 -0.134035,-0.0372389 -0.0546114,-0.0198241 -0.106729,-0.034745 -0.156395,-0.0446782 -0.0496237,-0.00993319 -0.114126,-0.0273057 -0.193549,-0.0521176 -0.0794233,-0.0248118 -0.158889,-0.0471298 -0.238312,-0.0670385z"/>
   <g style="clip-path:url(#id1)">
    <g>
     <path id="_2285691121" class="fil6" d="M4.46292 4.68039c0.534786,-0.328937 2.11733,0.447797 3.30107,0.447797 1.47924,0 2.75001,0.109181 3.81232,0.327584l-0.193634 1.81684 -2.93367 0c-0.536139,0 -0.856283,0.00739706 -0.960518,0.022318 -0.0874121,0.0125116 -0.138177,0.0511454 -0.152295,0.115986l-2.87327 -2.73053z"/>
     <polygon id="_228569448" class="fil7" points="8.78407,10.4595 11.6331,13.2966 8.25157,13.9791 3.31887,13.2966 3.34989,9.75993 "/>
    </g>
   </g>
   <path class="fil8" d="M7.89799 10.1914l-1.63809 -0.446698c-0.764433,-0.218446 -1.28071,-0.52126 -1.54873,-0.908443 -0.268069,-0.387183 -0.402062,-0.898468 -0.402062,-1.53385 0,-0.714809 0.263082,-1.25589 0.789245,-1.62321 0.526163,-0.367317 1.4147,-0.550975 2.66565,-0.550975 1.47924,0 2.75001,0.109181 3.81232,0.327584l-0.193634 1.81684 -2.93367 0c-0.536139,0 -0.856283,0.00739706 -0.960518,0.022318 -0.104277,0.0148787 -0.156353,0.0669962 -0.156353,0.156353 0,0.0893565 0.16878,0.173725 0.506297,0.253148 0.148913,0.0397328 0.273015,0.0744778 0.372304,0.104235l1.71257 0.431904c0.685052,0.188604 1.18391,0.454179 1.49666,0.796684 0.312705,0.342505 0.469058,0.826484 0.469058,1.45198 0,0.933213 -0.270521,1.57604 -0.811605,1.92848 -0.541084,0.352438 -1.4718,0.528657 -2.79224,0.528657 -1.37002,0 -2.66066,-0.104235 -3.87187,-0.312748l0.193634 -1.81676 2.65072 0c0.734633,0 1.18636,-0.00993319 1.35514,-0.0297996 0.16878,-0.0198664 0.253191,-0.084411 0.253191,-0.193592 0,-0.0198664 -0.00249387,-0.0372389 -0.0074816,-0.0521176 -0.00494546,-0.0148787 -0.0148787,-0.0297996 -0.0297573,-0.0446782 -0.0149209,-0.0148787 -0.0297996,-0.0273057 -0.0446782,-0.0371966 -0.0149209,-0.00997546 -0.0372389,-0.0223602 -0.0669962,-0.0372812 -0.0297996,-0.0148787 -0.0620507,-0.0247696 -0.0967958,-0.0297573 -0.034745,-0.00498773 -0.0794233,-0.0173725 -0.134035,-0.0372389 -0.0546114,-0.0198241 -0.106729,-0.034745 -0.156395,-0.0446782 -0.0496237,-0.00993319 -0.114126,-0.0273057 -0.193549,-0.0521176 -0.0794233,-0.0248118 -0.158889,-0.0471298 -0.238312,-0.0670385z"/>
  </g>
 </g>
</svg>
