<svg id="Capa_1" enable-background="new 0 0 512 512" height="512" viewBox="0 0 512 512" width="512" xmlns="http://www.w3.org/2000/svg"><g><path d="m245 14.177c-135.31 0-245 109.69-245 245s109.69 245 245 245c66.106 0 126.087-26.191 170.16-68.75l-.404-1h-114.053v-150.817h143.085c2.874 0 5.212 2.338 5.212 5.212v104.239l1 .299c25.282-38.546 40-84.642 40-134.183 0-135.309-109.69-245-245-245z" fill="#60b7ff"/><g><g><g><path d="m443.788 282.61h-144.085v152.817h115.457c13.109-12.659 24.806-26.768 34.84-42.067v-104.538c0-3.431-2.781-6.212-6.212-6.212z" fill="#fed402"/></g><path d="m341.091 363.848c-.915.697-2.007 1.065-3.157 1.065s-2.242-.368-3.157-1.065l-28.468-21.676-6.606 7.713v85.543h115.457c6.284-6.068 12.243-12.468 17.851-19.174l-63.453-74.082z" fill="#fee45a"/><g><path d="m443.788 282.61h-144.085v55.789l34.468 26.244c2.223 1.693 5.303 1.693 7.527 0l105.938-80.663c-1.062-.845-2.387-1.37-3.848-1.37z" fill="#fac600"/></g><g><path d="m299.703 314.92v23.479l34.468 26.244c2.223 1.693 5.303 1.693 7.527 0l11.654-8.874z" fill="#e8b800"/></g></g><g><g><path d="m42 398.17v49.496c0 11.466 9.295 20.761 20.761 20.761h209.682c11.466 0 20.761-9.295 20.761-20.761v-49.496z" fill="#116d9a"/><path d="m84 447.667v-48.496h-42v48.496c0 11.466 9.295 20.761 20.761 20.761h42c-11.466-.001-20.761-9.295-20.761-20.761z" fill="#005e89"/><g><path d="m293.203 399.171h-251.203v-363.088c0-11.466 9.295-20.761 20.761-20.761h209.682c11.466 0 20.761 9.295 20.761 20.761v363.088z" fill="#eaf6ff"/></g><path d="m104.761 15.323h-42c-11.466 0-20.761 9.294-20.761 20.76v363.087h42v-363.087c0-11.466 9.295-20.76 20.761-20.76z" fill="#d8ecfe"/><g><path d="m204.715 54.06h-74.226c-6.75 0-12.905-3.858-15.847-9.933l-13.949-28.804h133.819l-13.949 28.804c-2.943 6.074-9.099 9.933-15.848 9.933z" fill="#116d9a"/></g><path d="m145.949 44.126-13.949-28.803h-31.308l13.949 28.804c2.942 6.075 9.098 9.933 15.847 9.933h31.308c-6.749 0-12.905-3.859-15.847-9.934z" fill="#005e89"/><g><path d="m272.442 475.927h-209.681c-15.583 0-28.261-12.678-28.261-28.261v-411.583c0-15.583 12.678-28.26 28.261-28.26h209.682c15.583 0 28.261 12.678 28.261 28.261v411.583c-.001 15.583-12.679 28.26-28.262 28.26zm-209.681-453.104c-7.312 0-13.261 5.949-13.261 13.261v411.583c0 7.312 5.949 13.261 13.261 13.261h209.682c7.312 0 13.261-5.949 13.261-13.261v-411.584c0-7.312-5.949-13.261-13.261-13.261h-209.682z" fill="#2882b2"/></g></g><g><path d="m217.218 300.226h-99.233c-4.142 0-7.5-3.358-7.5-7.5s3.358-7.5 7.5-7.5h99.233c4.142 0 7.5 3.358 7.5 7.5s-3.358 7.5-7.5 7.5z" fill="#60b7ff"/></g><g><path d="m191.006 333.927h-46.809c-4.142 0-7.5-3.358-7.5-7.5s3.358-7.5 7.5-7.5h46.809c4.142 0 7.5 3.358 7.5 7.5s-3.358 7.5-7.5 7.5z" fill="#60b7ff"/></g><g><circle cx="256.5" cy="42.054" fill="#60b7ff" r="7.5"/></g><g><circle cx="71.5" cy="42.054" fill="#fff" r="7.5"/></g><g><circle cx="94.5" cy="42.054" fill="#fff" r="7.5"/></g><g><path d="m186.5 441.927h-37.797c-6.904 0-12.5-5.596-12.5-12.5 0-6.904 5.596-12.5 12.5-12.5h37.797c6.904 0 12.5 5.596 12.5 12.5 0 6.904-5.596 12.5-12.5 12.5z" fill="#005e89"/></g></g><g><path d="m323.788 248.14h-210.576c-3.431 0-6.212-2.781-6.212-6.212v-140.393c0-3.431 2.781-6.212 6.212-6.212h210.576c3.431 0 6.212 2.781 6.212 6.212v140.393c0 3.431-2.781 6.212-6.212 6.212z" fill="#fed402"/><path d="m249.559 154.884-28.467 21.676c-.915.697-2.007 1.065-3.157 1.065s-2.242-.368-3.157-1.065l-28.468-21.676-77.896 90.944c1.139 1.399 2.854 2.311 4.798 2.311h210.576c1.632 0 3.105-.643 4.214-1.672z" fill="#fee45a"/><path d="m221.697 177.355 105.938-80.663c-1.061-.844-2.386-1.37-3.847-1.37h-210.576c-1.714 0-3.267.695-4.391 1.818l105.349 80.215c2.224 1.693 5.304 1.693 7.527 0z" fill="#fac600"/><path d="m140 97.14c1.124-1.123 2.676-1.818 4.391-1.818h-31.179c-1.714 0-3.267.695-4.391 1.818l105.349 80.215c2.223 1.693 5.303 1.693 7.527 0l11.826-9.005z" fill="#e8b800"/></g></g><g><path d="m508.1 224.012h-132.2c-2.154 0-3.9-1.746-3.9-3.9v-88.139c0-2.154 1.746-3.9 3.9-3.9h132.2c2.154 0 3.9 1.746 3.9 3.9v88.139c0 2.154-1.746 3.9-3.9 3.9z" fill="#fed402"/><path d="m461.256 165.183-17.855 13.595c-.509.387-1.117.592-1.757.592s-1.248-.205-1.756-.592l-17.855-13.595-49.146 57.378c.715.878 1.792 1.451 3.012 1.451h132.2c1.025 0 1.95-.403 2.646-1.05z" fill="#fee45a"/><path d="m444.007 179.573 66.508-50.641c-.666-.53-1.498-.86-2.415-.86h-132.2c-1.076 0-2.051.436-2.756 1.141l66.139 50.359c1.395 1.064 3.328 1.064 4.724.001z" fill="#fac600"/><path d="m404.628 129.214c.706-.705 1.68-1.141 2.756-1.141h-31.484c-1.076 0-2.051.436-2.756 1.141l66.139 50.359c1.396 1.063 3.329 1.063 4.725 0l13.38-10.188z" fill="#e8b800"/></g></g></svg>