<?xml version="1.0" encoding="UTF-8"?> <!-- Generator: Adobe Illustrator 16.0.0, SVG Export Plug-In . SVG Version: 6.00 Build 0) --> <svg xmlns="http://www.w3.org/2000/svg" xmlns:xlink="http://www.w3.org/1999/xlink" id="objects" x="0px" y="0px" width="1009.061px" height="233.794px" viewBox="0 0 1009.061 233.794" xml:space="preserve"> <circle fill="#82B62E" cx="117.184" cy="116.682" r="117.113"></circle> <g> <g> <path fill="#99CC33" d="M159.03,50.425h-42.361h-0.005H74.308c0,0-6.469,11.299-15.339,12.32 c-31.462,108.185,57.651,134.905,57.7,134.923h0.007c0.056-0.018,89.169-26.738,57.707-134.923 C165.486,61.719,159.03,50.425,159.03,50.425z"></path> <path fill="#FFFFFF" d="M189.249,53.637l-0.845-2.863l-3.335-0.382c-6.332-0.715-12.54-9.021-14.207-11.883l-1.406-2.381H63.865 l-1.388,2.387c-1.667,2.855-7.825,11.156-14.21,11.877l-3.343,0.382l-0.843,2.863c-38.103,128.8,70.063,160.78,71.177,161.068 l1.437,0.372l1.443-0.382C119.232,214.395,227.069,181.459,189.249,53.637z M116.669,205.848 c-13.038-4.435-94.938-37.098-63.672-147.472c8.192-2.441,14.121-9.628,16.82-13.488h93.703 c2.701,3.86,8.623,11.054,16.821,13.488C211.605,168.756,129.695,201.413,116.669,205.848z"></path> </g> <path fill="#FFFFFF" d="M140.414,101h-3.253c0-15-8.666-22.778-20.608-22.778C104.612,78.222,95.946,86,95.946,101h-3.254 c-4.792,0-6.691,1.851-6.691,6.644v30.369c0,4.792,1.899,8.987,6.691,8.987h47.723c4.792,0,7.586-4.195,7.586-8.987v-30.369 C148,102.851,145.207,101,140.414,101z M121.976,138H111.13l2.083-15.119c-2.132-1.197-3.574-3.743-3.574-6.361 c0-3.855,3.125-7.116,6.981-7.116s6.982,3.061,6.982,6.917c0,2.669-1.498,5.488-3.701,6.664L121.976,138z M102.454,101 c0-14,7.081-16.27,14.099-16.27c7.019,0,14.102,2.27,14.102,16.27H102.454z"></path> </g> <g> <path fill="#999999" d="M283.736,92.403c2.343,0,4.275-0.195,5.803-0.585c1.525-0.39,2.75-0.922,3.673-1.597 c0.922-0.674,1.561-1.472,1.917-2.396c0.354-0.921,0.532-1.951,0.532-3.087c0-2.412-1.137-4.418-3.407-6.016 c-2.272-1.597-6.175-3.317-11.711-5.164c-2.414-0.852-4.828-1.826-7.24-2.928c-2.413-1.1-4.578-2.483-6.494-4.152 c-1.916-1.667-3.479-3.69-4.685-6.069c-1.208-2.377-1.81-5.27-1.81-8.677c0-3.407,0.639-6.477,1.916-9.209 c1.277-2.731,3.088-5.057,5.43-6.974c2.343-1.917,5.181-3.389,8.518-4.418c3.335-1.028,7.097-1.543,11.285-1.543 c4.968,0,9.263,0.532,12.883,1.597c3.62,1.065,6.601,2.236,8.943,3.514l-4.791,13.095c-2.06-1.064-4.349-2.004-6.867-2.821 c-2.521-0.815-5.555-1.225-9.104-1.225c-3.976,0-6.832,0.551-8.57,1.65c-1.74,1.101-2.608,2.787-2.608,5.057 c0,1.349,0.319,2.485,0.958,3.407c0.64,0.923,1.544,1.757,2.715,2.502c1.172,0.746,2.519,1.421,4.046,2.023 c1.525,0.604,3.211,1.225,5.058,1.863c3.833,1.421,7.168,2.821,10.008,4.206c2.838,1.384,5.198,2.999,7.08,4.844 c1.88,1.846,3.282,4.011,4.205,6.494c0.922,2.485,1.384,5.501,1.384,9.05c0,6.885-2.413,12.227-7.239,16.023 c-4.828,3.798-12.103,5.696-21.826,5.696c-3.265,0-6.211-0.196-8.836-0.586c-2.627-0.391-4.951-0.87-6.974-1.437 c-2.023-0.567-3.763-1.171-5.217-1.81c-1.456-0.639-2.68-1.241-3.673-1.81l4.684-13.202c2.199,1.208,4.914,2.289,8.146,3.247 C275.095,91.924,279.053,92.403,283.736,92.403z"></path> <path fill="#999999" d="M345.698,92.403c2.343,0,4.275-0.195,5.803-0.585c1.525-0.39,2.75-0.922,3.673-1.597 c0.922-0.674,1.561-1.472,1.917-2.396c0.354-0.921,0.532-1.951,0.532-3.087c0-2.412-1.137-4.418-3.407-6.016 c-2.272-1.597-6.175-3.317-11.711-5.164c-2.414-0.852-4.828-1.826-7.24-2.928c-2.413-1.1-4.578-2.483-6.494-4.152 c-1.916-1.667-3.479-3.69-4.685-6.069c-1.208-2.377-1.81-5.27-1.81-8.677c0-3.407,0.639-6.477,1.916-9.209 c1.277-2.731,3.088-5.057,5.43-6.974c2.343-1.917,5.181-3.389,8.518-4.418c3.335-1.028,7.097-1.543,11.285-1.543 c4.968,0,9.263,0.532,12.883,1.597c3.62,1.065,6.601,2.236,8.943,3.514l-4.791,13.095c-2.06-1.064-4.349-2.004-6.867-2.821 c-2.521-0.815-5.555-1.225-9.104-1.225c-3.976,0-6.832,0.551-8.57,1.65c-1.74,1.101-2.608,2.787-2.608,5.057 c0,1.349,0.319,2.485,0.958,3.407c0.64,0.923,1.544,1.757,2.715,2.502c1.172,0.746,2.519,1.421,4.046,2.023 c1.525,0.604,3.211,1.225,5.058,1.863c3.833,1.421,7.168,2.821,10.008,4.206c2.838,1.384,5.198,2.999,7.08,4.844 c1.88,1.846,3.282,4.011,4.205,6.494c0.922,2.485,1.385,5.501,1.385,9.05c0,6.885-2.414,12.227-7.24,16.023 c-4.828,3.798-12.103,5.696-21.826,5.696c-3.265,0-6.211-0.196-8.836-0.586c-2.627-0.391-4.951-0.87-6.974-1.437 c-2.023-0.567-3.763-1.171-5.217-1.81c-1.456-0.639-2.68-1.241-3.673-1.81l4.684-13.202c2.199,1.208,4.914,2.289,8.146,3.247 C337.057,91.924,341.015,92.403,345.698,92.403z"></path> <path fill="#999999" d="M436.833,90.806v14.267h-49.294V31.291h16.608v59.515H436.833z"></path> <path fill="#666666" d="M283.736,185.946c2.343,0,4.275-0.195,5.803-0.585c1.525-0.39,2.75-0.922,3.673-1.597 c0.922-0.674,1.561-1.472,1.917-2.396c0.354-0.921,0.532-1.951,0.532-3.087c0-2.412-1.137-4.418-3.407-6.016 c-2.272-1.597-6.175-3.317-11.711-5.164c-2.414-0.852-4.828-1.826-7.24-2.928c-2.413-1.1-4.578-2.483-6.494-4.152 c-1.916-1.667-3.479-3.69-4.685-6.069c-1.208-2.377-1.81-5.27-1.81-8.677c0-3.407,0.639-6.477,1.916-9.209 c1.277-2.731,3.088-5.057,5.43-6.974c2.343-1.917,5.181-3.389,8.518-4.418c3.335-1.028,7.097-1.543,11.285-1.543 c4.968,0,9.263,0.532,12.883,1.597c3.62,1.065,6.601,2.236,8.943,3.514l-4.791,13.095c-2.06-1.064-4.349-2.004-6.867-2.821 c-2.521-0.815-5.555-1.225-9.104-1.225c-3.976,0-6.832,0.551-8.57,1.65c-1.74,1.101-2.608,2.787-2.608,5.057 c0,1.349,0.319,2.485,0.958,3.407c0.64,0.923,1.544,1.757,2.715,2.502c1.172,0.746,2.519,1.421,4.046,2.023 c1.525,0.604,3.211,1.225,5.058,1.863c3.833,1.421,7.168,2.821,10.008,4.206c2.838,1.384,5.198,2.999,7.08,4.844 c1.88,1.846,3.282,4.011,4.205,6.494c0.922,2.485,1.384,5.501,1.384,9.05c0,6.885-2.413,12.227-7.239,16.023 c-4.828,3.798-12.103,5.696-21.826,5.696c-3.265,0-6.211-0.196-8.836-0.586c-2.627-0.391-4.951-0.87-6.974-1.437 c-2.023-0.567-3.763-1.171-5.217-1.81c-1.456-0.639-2.68-1.241-3.673-1.81l4.684-13.202c2.199,1.208,4.914,2.289,8.146,3.247 C275.095,185.467,279.053,185.946,283.736,185.946z"></path> <path fill="#666666" d="M325.576,198.616v-73.781h49.827v13.947h-33.218v14.479h29.491v13.627h-29.491v17.78h35.666v13.947H325.576 z"></path> <path fill="#666666" d="M423.736,200.106c-11.995,0-21.133-3.335-27.415-10.008c-6.281-6.671-9.422-16.146-9.422-28.427 c0-6.104,0.958-11.551,2.875-16.342c1.916-4.791,4.541-8.837,7.878-12.137c3.336-3.301,7.31-5.803,11.925-7.506 c4.612-1.704,9.616-2.555,15.012-2.555c3.122,0,5.962,0.231,8.517,0.692c2.556,0.462,4.791,0.995,6.708,1.597 c1.916,0.604,3.513,1.224,4.791,1.863c1.277,0.639,2.199,1.136,2.768,1.491l-4.791,13.415c-2.272-1.206-4.915-2.236-7.932-3.087 c-3.018-0.852-6.441-1.277-10.273-1.277c-2.556,0-5.058,0.426-7.506,1.277c-2.449,0.852-4.615,2.219-6.495,4.099 c-1.881,1.881-3.39,4.312-4.524,7.293c-1.137,2.981-1.703,6.601-1.703,10.859c0,3.407,0.372,6.584,1.117,9.529 c0.745,2.946,1.951,5.483,3.62,7.612c1.667,2.129,3.85,3.816,6.548,5.057c2.696,1.243,5.962,1.863,9.795,1.863 c2.412,0,4.578-0.142,6.494-0.426c1.916-0.283,3.62-0.621,5.11-1.012c1.49-0.389,2.803-0.833,3.939-1.331 c1.135-0.496,2.164-0.958,3.087-1.384l4.578,13.308c-2.342,1.421-5.643,2.698-9.901,3.833 C434.277,199.537,429.343,200.106,423.736,200.106z"></path> <path fill="#666666" d="M487.936,200.106c-5.182,0-9.653-0.729-13.414-2.183c-3.763-1.454-6.867-3.477-9.316-6.069 c-2.448-2.59-4.258-5.678-5.43-9.262c-1.171-3.583-1.757-7.541-1.757-11.871v-45.887h16.609v44.503c0,2.981,0.336,5.52,1.012,7.612 c0.673,2.095,1.597,3.798,2.768,5.11c1.171,1.314,2.59,2.254,4.259,2.821c1.667,0.569,3.495,0.852,5.483,0.852 c4.045,0,7.327-1.241,9.848-3.727c2.519-2.483,3.779-6.707,3.779-12.669v-44.503h16.609v45.887c0,4.33-0.604,8.304-1.811,11.924 c-1.207,3.62-3.053,6.726-5.536,9.315c-2.485,2.592-5.643,4.597-9.476,6.016S493.188,200.106,487.936,200.106z"></path> <path fill="#666666" d="M555.966,123.983c11.072,0,19.553,1.97,25.445,5.909c5.891,3.939,8.837,10.061,8.837,18.366 c0,5.182-1.189,9.387-3.566,12.616c-2.379,3.23-5.803,5.768-10.274,7.612c1.49,1.847,3.051,3.958,4.685,6.334 c1.632,2.379,3.247,4.863,4.845,7.453c1.597,2.592,3.141,5.289,4.631,8.092c1.49,2.805,2.875,5.554,4.152,8.251h-18.566 c-1.354-2.412-2.727-4.861-4.116-7.346c-1.389-2.483-2.812-4.897-4.273-7.24s-2.904-4.56-4.328-6.654 c-1.426-2.092-2.852-3.992-4.275-5.696h-8.198v26.936h-16.608v-72.716c3.619-0.708,7.362-1.206,11.231-1.491 C549.453,124.126,552.913,123.983,555.966,123.983z M556.924,138.143c-1.207,0-2.289,0.037-3.247,0.106 c-0.958,0.071-1.863,0.143-2.715,0.213v20.016h4.685c6.245,0,10.717-0.78,13.415-2.342c2.696-1.561,4.045-4.222,4.045-7.985 c0-3.62-1.367-6.192-4.099-7.719C566.274,138.907,562.247,138.143,556.924,138.143z"></path> <path fill="#666666" d="M605.366,198.616v-73.781h49.826v13.947h-33.218v14.479h29.491v13.627h-29.491v17.78h35.666v13.947H605.366 z"></path> </g> </svg> 