<?xml version="1.0" encoding="UTF-8"?>
<!DOCTYPE svg PUBLIC "-//W3C//DTD SVG 1.1//EN" "http://www.w3.org/Graphics/SVG/1.1/DTD/svg11.dtd">
<!-- Creator: CorelDRAW X7 -->
<svg xmlns="http://www.w3.org/2000/svg" xml:space="preserve" width="173.982mm" height="61.9722mm" version="1.1" style="shape-rendering:geometricPrecision; text-rendering:geometricPrecision; image-rendering:optimizeQuality; fill-rule:evenodd; clip-rule:evenodd"
viewBox="0 0 11604 4133"
 xmlns:xlink="http://www.w3.org/1999/xlink">
 <defs>
  <style type="text/css">
   <![CDATA[
    .fil4 {fill:#666666}
    .fil0 {fill:#82B62E}
    .fil3 {fill:#999999}
    .fil1 {fill:#99CC33}
    .fil2 {fill:white}
   ]]>
  </style>
 </defs>
 <g id="Layer_x0020_1">
  <metadata id="CorelCorpID_0Corel-Layer"/>
  <g id="_2147248073440">
   <circle class="fil0" cx="2067" cy="2067" r="2067"/>
   <g>
    <g>
     <path class="fil1" d="M2805 897l-747 0 0 0 -748 0c0,0 -114,200 -271,218 -555,1909 1018,2381 1019,2381l0 0c1,0 1573,-472 1018,-2381 -157,-18 -271,-218 -271,-218z"/>
     <path class="fil2" d="M3338 954l-14 -50 -59 -7c-112,-13 -222,-159 -251,-210l-25 -42 -1863 0 -25 42c-29,51 -138,197 -250,210l-59 7 -15 50c-673,2273 1236,2837 1256,2843l25 6 26 -7c19,-5 1922,-586 1254,-2842zm-1280 2686c-230,-78 -1676,-654 -1124,-2602 145,-43 249,-170 297,-238l1653 0c48,68 153,195 297,238 552,1948 -894,2524 -1123,2602z"/>
    </g>
    <path class="fil2" d="M2477 1790l-58 0c0,-265 -153,-402 -363,-402 -211,0 -364,137 -364,402l-58 0c-84,0 -118,33 -118,117l0 536c0,85 34,159 118,159l843 0c84,0 134,-74 134,-159l0 -536c0,-84 -50,-117 -134,-117zm-326 653l-191 0 37 -267c-38,-21 -63,-66 -63,-112 0,-68 55,-126 123,-126 68,0 123,54 123,122 0,47 -26,97 -65,118l36 265zm-344 -653c0,-247 125,-287 249,-287 123,0 248,40 248,287l-497 0z"/>
   </g>
   <g>
    <path class="fil3" d="M5006 1638c41,0 75,-3 102,-10 27,-7 49,-16 65,-28 16,-12 28,-26 34,-43 6,-16 9,-34 9,-54 0,-43 -20,-78 -60,-106 -40,-28 -109,-59 -206,-91 -43,-15 -86,-33 -128,-52 -43,-19 -81,-44 -115,-73 -34,-30 -61,-65 -82,-107 -22,-42 -32,-93 -32,-153 0,-61 11,-115 33,-163 23,-48 55,-89 96,-123 42,-34 92,-60 151,-78 58,-18 125,-27 199,-27 87,0 163,9 227,28 64,19 117,39 158,62l-85 231c-36,-19 -76,-35 -121,-50 -44,-14 -98,-21 -161,-21 -70,0 -120,9 -151,29 -31,19 -46,49 -46,89 0,24 6,44 17,60 11,16 27,31 48,44 21,13 44,25 71,36 27,11 57,22 90,33 67,25 126,50 176,74 50,24 92,53 125,86 33,32 58,70 74,114 17,44 25,97 25,160 0,121 -43,216 -128,283 -85,67 -213,100 -385,100 -58,0 -110,-3 -156,-10 -46,-7 -87,-16 -123,-26 -36,-10 -66,-20 -92,-32 -26,-11 -47,-21 -65,-31l83 -233c39,21 86,40 143,57 57,17 127,25 210,25z"/>
    <path class="fil3" d="M6099 1638c42,0 76,-3 103,-10 27,-7 48,-16 65,-28 16,-12 27,-26 33,-43 7,-16 10,-34 10,-54 0,-43 -20,-78 -60,-106 -40,-28 -109,-59 -207,-91 -43,-15 -85,-33 -128,-52 -42,-19 -81,-44 -114,-73 -34,-30 -62,-65 -83,-107 -21,-42 -32,-93 -32,-153 0,-61 11,-115 34,-163 22,-48 54,-89 96,-123 41,-34 91,-60 150,-78 59,-18 125,-27 199,-27 88,0 164,9 227,28 64,19 117,39 158,62l-84 231c-37,-19 -77,-35 -121,-50 -45,-14 -98,-21 -161,-21 -70,0 -121,9 -151,29 -31,19 -46,49 -46,89 0,24 5,44 17,60 11,16 27,31 47,44 21,13 45,25 72,36 27,11 57,22 89,33 68,25 127,50 177,74 50,24 91,53 125,86 33,32 58,70 74,114 16,44 24,97 24,160 0,121 -42,216 -127,283 -86,67 -214,100 -386,100 -57,0 -109,-3 -156,-10 -46,-7 -87,-16 -123,-26 -35,-10 -66,-20 -92,-32 -25,-11 -47,-21 -64,-31l82 -233c39,21 87,40 144,57 57,17 127,25 209,25z"/>
    <polygon class="fil3" points="7708,1610 7708,1862 6838,1862 6838,560 7131,560 7131,1610 "/>
    <path class="fil4" d="M5006 3289c41,0 75,-3 102,-10 27,-7 49,-17 65,-28 16,-12 28,-26 34,-43 6,-16 9,-34 9,-54 0,-43 -20,-78 -60,-106 -40,-29 -109,-59 -206,-92 -43,-15 -86,-32 -128,-51 -43,-20 -81,-44 -115,-73 -34,-30 -61,-66 -82,-108 -22,-42 -32,-93 -32,-153 0,-60 11,-114 33,-162 23,-48 55,-89 96,-123 42,-34 92,-60 151,-78 58,-18 125,-27 199,-27 87,0 163,9 227,28 64,18 117,39 158,62l-85 231c-36,-19 -76,-36 -121,-50 -44,-14 -98,-22 -161,-22 -70,0 -120,10 -151,30 -31,19 -46,49 -46,89 0,24 6,44 17,60 11,16 27,31 48,44 21,13 44,25 71,36 27,10 57,21 90,33 67,25 126,49 176,74 50,24 92,53 125,85 33,33 58,71 74,115 17,44 25,97 25,160 0,121 -43,215 -128,282 -85,67 -213,101 -385,101 -58,0 -110,-4 -156,-10 -46,-7 -87,-16 -123,-26 -36,-10 -66,-20 -92,-32 -26,-11 -47,-22 -65,-32l83 -233c39,22 86,41 143,58 57,17 127,25 210,25z"/>
    <polygon class="fil4" points="5744,3513 5744,2211 6624,2211 6624,2457 6037,2457 6037,2712 6558,2712 6558,2953 6037,2953 6037,3266 6667,3266 6667,3513 5744,3513 "/>
    <path class="fil4" d="M7476 3539c-211,0 -372,-59 -483,-177 -111,-117 -167,-285 -167,-501 0,-108 17,-204 51,-289 34,-84 80,-156 139,-214 59,-58 129,-102 211,-132 81,-30 169,-45 265,-45 55,0 105,4 150,12 45,8 84,17 118,28 34,11 62,22 85,33 22,11 39,20 49,26l-85 237c-40,-21 -87,-40 -140,-55 -53,-15 -114,-22 -181,-22 -45,0 -89,7 -133,22 -43,15 -81,40 -114,73 -33,33 -60,76 -80,128 -20,53 -30,117 -30,192 0,60 6,116 20,168 13,52 34,97 63,135 30,37 68,67 116,89 48,22 105,33 173,33 42,0 81,-3 114,-8 34,-5 64,-11 91,-18 26,-7 49,-14 69,-23 20,-9 38,-17 55,-25l80 235c-41,25 -99,48 -174,68 -75,20 -163,30 -262,30z"/>
    <path class="fil4" d="M8609 3539c-91,0 -170,-13 -236,-39 -67,-25 -121,-61 -165,-107 -43,-45 -75,-100 -95,-163 -21,-63 -32,-133 -32,-210l0 -809 294 0 0 785c0,53 6,97 17,134 12,37 29,67 49,90 21,24 46,40 75,50 30,10 62,15 97,15 72,0 130,-22 174,-66 44,-43 67,-118 67,-223l0 -785 293 0 0 809c0,77 -11,147 -32,211 -21,64 -54,118 -98,164 -44,46 -99,81 -167,106 -68,25 -148,38 -241,38z"/>
    <path class="fil4" d="M9810 2196c195,0 345,34 449,104 104,69 156,177 156,324 0,91 -21,166 -63,223 -42,57 -102,101 -181,134 26,33 54,70 82,112 29,42 58,86 86,131 28,46 55,94 82,143 26,50 50,98 73,146l-328 0c-24,-43 -48,-86 -72,-130 -25,-44 -50,-86 -76,-128 -26,-41 -51,-80 -76,-117 -25,-37 -50,-71 -76,-101l-144 0 0 476 -293 0 0 -1284c64,-12 130,-21 198,-26 68,-5 129,-7 183,-7zm17 249c-21,0 -40,1 -57,2 -17,2 -33,3 -48,4l0 353 82 0c111,0 189,-13 237,-41 48,-28 71,-75 71,-141 0,-64 -24,-109 -72,-136 -48,-27 -119,-41 -213,-41z"/>
    <polygon class="fil4" points="10682,3513 10682,2211 11561,2211 11561,2457 10975,2457 10975,2712 11495,2712 11495,2953 10975,2953 10975,3266 11604,3266 11604,3513 10682,3513 "/>
   </g>
  </g>
 </g>
</svg>
