<?xml version="1.0" encoding="UTF-8"?>
<!DOCTYPE svg PUBLIC "-//W3C//DTD SVG 1.1//EN" "http://www.w3.org/Graphics/SVG/1.1/DTD/svg11.dtd">
<!-- Creator: CorelDRAW X7 -->
<svg xmlns="http://www.w3.org/2000/svg" xml:space="preserve" width="62.0666mm" height="11.6151mm" version="1.1" style="shape-rendering:geometricPrecision; text-rendering:geometricPrecision; image-rendering:optimizeQuality; fill-rule:evenodd; clip-rule:evenodd"
viewBox="0 0 2049 383"
 xmlns:xlink="http://www.w3.org/1999/xlink">
 <defs>
  <style type="text/css">
   <![CDATA[
    .fil0 {fill:#FEFEFE;fill-rule:nonzero}
   ]]>
  </style>
 </defs>
 <g id="Layer_x0020_1">
  <metadata id="CorelCorpID_0Corel-Layer"/>
  <g id="_2653413358192">
   <path class="fil0" d="M993 0l45 0 0 308c0,10 3,18 8,24 6,6 13,8 23,8 4,0 8,0 13,-1 6,-2 10,-3 15,-5l7 37c-7,3 -16,6 -27,8 -10,2 -19,3 -27,3 -18,0 -32,-5 -42,-15 -10,-10 -15,-24 -15,-42l0 -325z"/>
   <polygon class="fil0" points="176,2 233,2 280,131 327,2 383,2 318,171 375,311 494,0 560,0 402,381 351,381 280,211 209,381 157,381 0,0 65,0 185,311 241,171 "/>
   <path class="fil0" d="M1156 378l0 -270 46 0 0 270 -46 0zm0 -321l0 -57 46 0 0 57 -46 0z"/>
   <path class="fil0" d="M1408 383c-21,0 -39,-3 -56,-11 -17,-7 -32,-17 -44,-30 -12,-13 -21,-28 -28,-45 -7,-17 -10,-35 -10,-54 0,-19 3,-37 10,-54 7,-17 16,-32 29,-44 12,-13 26,-23 43,-31 17,-7 36,-11 56,-11 21,0 39,4 56,11 17,8 31,18 43,31 11,12 21,27 27,44 6,17 10,34 10,52 0,4 -1,7 -1,10 0,3 0,6 -1,8l-224 0c1,13 4,25 9,36 6,11 12,21 21,29 8,8 17,14 28,18 10,5 22,7 33,7 9,0 17,-1 25,-3 8,-2 15,-5 22,-9 7,-4 13,-9 18,-14 6,-6 10,-12 13,-19l39 11c-5,10 -11,19 -18,27 -8,9 -17,16 -27,22 -11,6 -22,11 -34,14 -13,4 -26,5 -39,5zm93 -158c-2,-13 -5,-25 -10,-36 -5,-11 -12,-20 -20,-27 -8,-8 -18,-14 -29,-18 -10,-5 -22,-7 -34,-7 -12,0 -23,2 -34,7 -11,4 -20,10 -28,18 -8,8 -15,17 -20,28 -5,10 -8,22 -9,35l184 0z"/>
   <path class="fil0" d="M1833 378l-45 0 0 -151c0,-29 -5,-50 -14,-63 -8,-13 -22,-20 -40,-20 -9,0 -18,2 -28,5 -9,4 -18,9 -26,15 -9,6 -16,14 -22,23 -6,8 -11,18 -14,28l0 163 -46 0 0 -270 42 0 0 58c11,-19 26,-34 46,-46 20,-11 42,-17 66,-17 16,0 29,3 39,9 11,5 19,13 25,23 6,11 11,23 13,36 3,14 4,29 4,46l0 161z"/>
   <path class="fil0" d="M2049 365c-3,1 -7,3 -11,5 -5,2 -10,3 -16,5 -5,2 -11,4 -18,5 -7,1 -14,2 -21,2 -17,0 -31,-5 -43,-14 -12,-9 -18,-23 -18,-43l0 -181 -37 0 0 -36 37 0 0 -90 45 0 0 90 61 0 0 36 -61 0 0 167c1,10 4,18 10,22 6,5 13,7 21,7 9,0 17,-2 24,-5 8,-2 13,-5 16,-7l11 37z"/>
   <g>
    <path class="fil0" d="M730 138c29,-12 62,2 74,31 3,8 13,12 21,9 8,-3 12,-12 8,-20 -18,-45 -69,-67 -114,-49 -46,18 -67,70 -49,115 18,45 69,67 115,48 18,-7 33,-20 43,-37 4,-7 1,-17 -6,-21 -8,-5 -17,-2 -22,5 -6,11 -16,19 -27,24 -29,12 -62,-2 -74,-31 -12,-29 2,-62 31,-74z"/>
    <path class="fil0" d="M898 88l-35 7c-4,-5 -9,-10 -14,-15l7 -35c3,-13 -4,-27 -17,-32l-21 -9c-13,-6 -28,-1 -36,10l-20 30c-6,-1 -13,-1 -20,-1l-19 -30c-8,-11 -23,-16 -36,-11l-21 9c-13,5 -20,19 -18,32l7 36c-5,4 -10,9 -14,14l-36 -8c-13,-2 -27,5 -32,18l-9 21c-6,12 -1,27 10,35l30 20c-1,9 -1,19 0,28 1,7 7,11 14,11 6,-1 11,-7 10,-14 -1,-10 -1,-19 1,-29 0,-5 -2,-9 -6,-12l-35 -24c-2,-1 -3,-4 -2,-6l9 -21c1,-2 3,-3 6,-3l42 9c4,1 9,-1 12,-4 6,-8 13,-15 21,-21 3,-3 5,-7 4,-12l-8 -42c0,-2 1,-5 3,-5l21 -9c3,-1 5,0 6,2l24 36c2,4 7,6 11,5 10,-1 20,-1 30,0 4,1 9,-1 11,-5l25 -35c1,-2 3,-3 5,-2l22 9c2,1 3,3 2,5l-8 42c-1,5 0,10 4,12 8,7 15,14 21,21 2,4 7,6 11,5l43 -8c2,-1 4,1 5,3l9 21c0,2 0,5 -2,6l-36 24c-4,2 -6,7 -6,11 2,10 1,20 0,29 0,5 2,9 5,12l36 24c2,2 3,4 2,6l-9 21c-1,2 -4,4 -6,3l-42 -9c-4,-1 -9,1 -12,5 -6,7 -13,14 -21,20 -3,3 -5,8 -4,12l8 42c0,3 -1,5 -3,6l-22 8c-2,1 -4,0 -5,-1l-24 -36c-2,-4 -7,-6 -11,-6 -10,1 -20,1 -30,0 -4,-1 -9,1 -11,5l-25 36c-1,2 -3,2 -6,1l-21 -9c-2,-1 -3,-3 -3,-5l9 -42c1,-5 -1,-9 -4,-12 -8,-6 -15,-13 -21,-21 -2,-4 -7,-5 -12,-5l-42 8c-2,1 -4,0 -5,-2l-9 -22c-1,-2 0,-4 2,-6l2 -1c6,-4 7,-11 4,-17 -4,-5 -11,-7 -17,-3l-2 1c-12,8 -16,22 -11,35l8 22c5,12 19,20 33,17l35 -6c4,5 9,10 14,14l-7 35c-3,14 4,27 17,33l21 9c13,5 28,1 35,-11l21 -29c6,0 13,0 20,0l19 30c8,11 23,16 36,11l21 -9c13,-5 20,-19 18,-32l-7 -35c5,-5 10,-9 14,-14l35 7c14,3 28,-5 33,-17l9 -21c5,-13 1,-28 -10,-36l-30 -20c1,-7 1,-13 0,-20l30 -20c12,-7 16,-22 11,-35l-8 -21c-6,-13 -19,-21 -33,-18z"/>
   </g>
  </g>
 </g>
</svg>
