<?xml version="1.0" encoding="UTF-8"?>
<!DOCTYPE svg PUBLIC "-//W3C//DTD SVG 1.1//EN" "http://www.w3.org/Graphics/SVG/1.1/DTD/svg11.dtd">
<!-- Creator: CorelDRAW X7 -->
<svg xmlns="http://www.w3.org/2000/svg" xml:space="preserve" width="70.4502mm" height="17.0756mm" version="1.1" style="shape-rendering:geometricPrecision; text-rendering:geometricPrecision; image-rendering:optimizeQuality; fill-rule:evenodd; clip-rule:evenodd"
viewBox="0 0 7112 1724"
 xmlns:xlink="http://www.w3.org/1999/xlink">
 <defs>
  <style type="text/css">
   <![CDATA[
    .fil3 {fill:none}
    .fil1 {fill:#007474}
    .fil2 {fill:#007A7A}
    .fil6 {fill:#FEFEFE;fill-rule:nonzero}
    .fil5 {fill:#EBECEC;fill-rule:nonzero}
    .fil0 {fill:#2B2A29;fill-rule:nonzero}
    .fil4 {fill:url(#id2)}
   ]]>
  </style>
     <clipPath id="id0">
      <path d="M1174 242c439,254 373,139 373,646 0,458 54,408 -259,581 -34,19 -72,40 -114,65 -232,133 -304,197 -386,189 -72,-6 -152,-70 -360,-189 -439,-254 -372,-139 -372,-646 0,-507 -67,-392 372,-646 440,-253 307,-253 746,0z"/>
     </clipPath>
     <clipPath id="id1">
      <path d="M1122 190c439,254 373,138 373,646 0,458 54,408 -259,581 -34,19 -72,40 -114,64 -232,134 -304,198 -386,190 -72,-7 -152,-70 -360,-190 -439,-253 -372,-138 -372,-645 0,-507 -67,-392 372,-646 440,-253 306,-253 746,0z"/>
     </clipPath>
  <linearGradient id="id2" gradientUnits="userSpaceOnUse" x1="702.76" y1="1625" x2="795.451" y2="46.7194">
   <stop offset="0" style="stop-opacity:1; stop-color:#009D9D"/>
   <stop offset="1" style="stop-opacity:1; stop-color:#007070"/>
  </linearGradient>
 </defs>
 <g id="Layer_x0020_1">
  <metadata id="CorelCorpID_0Corel-Layer"/>
  <g id="_2699887216384">
   <g>
    <path class="fil0" d="M2432 1394l-40 189c-1,5 -5,8 -10,8l-29 0c-5,0 -8,-3 -9,-8l-31 -148c-1,-5 -3,-12 -5,-22l-6 0 -4 22 -30 148c-2,5 -5,8 -10,8l-29 0c-3,0 -5,-1 -6,-3 -2,-1 -3,-3 -4,-5l-40 -189 27 0 31 153c0,2 1,10 4,24l6 0c2,-8 3,-17 5,-24l30 -145c1,-5 4,-8 10,-8l27 0c5,0 9,3 10,8l30 145c2,10 4,18 4,24l8 0c1,-11 2,-19 3,-23l31 -154 27 0z"/>
    <path id="1" class="fil0" d="M2546 1533l-64 0c1,16 5,27 11,32 7,6 18,8 33,8 15,0 31,-1 48,-3l2 16c-12,5 -30,8 -54,8 -24,0 -41,-6 -51,-17 -10,-11 -15,-30 -15,-56 0,-27 5,-46 15,-57 10,-10 26,-16 49,-16 21,0 36,4 45,12 10,7 14,18 14,34 1,26 -10,39 -33,39zm-65 -19l59 0c10,0 15,-7 15,-20 0,-9 -3,-16 -8,-19 -5,-4 -14,-6 -26,-6 -15,0 -25,3 -30,9 -6,7 -9,19 -10,36z"/>
    <path id="2" class="fil0" d="M2640 1391l0 52c0,13 -1,24 -3,31 16,-17 34,-26 54,-26 17,0 29,6 38,17 8,12 12,30 12,56 0,25 -5,43 -14,55 -9,12 -25,18 -48,18 -24,0 -45,-3 -64,-10l0 -193 25 0zm0 99l0 79c12,3 25,5 39,4 13,0 23,-4 28,-11 6,-8 8,-22 9,-41 -1,-20 -3,-33 -8,-41 -4,-7 -13,-11 -26,-11 -7,0 -13,2 -19,5 -6,4 -14,9 -23,16z"/>
    <path id="3" class="fil0" d="M2915 1507l-41 -10c-14,-3 -24,-9 -30,-18 -6,-9 -9,-21 -9,-37 0,-11 1,-20 4,-27 2,-7 6,-12 12,-16 6,-3 12,-6 19,-7 8,-1 17,-1 29,-1 23,0 43,2 59,5l-2 18c-19,0 -37,-1 -56,-1 -8,0 -14,0 -18,1 -4,0 -8,1 -12,3 -4,2 -6,5 -8,9 -1,4 -1,10 -1,17 0,10 1,18 5,22 4,5 10,8 19,10l40 10c15,4 25,10 31,19 6,8 9,21 9,36 0,22 -5,36 -15,43 -10,7 -27,11 -51,11 -21,0 -41,-2 -61,-5l2 -19c32,1 52,2 60,1 16,0 26,-2 31,-6 6,-4 9,-12 9,-25 0,-11 -2,-19 -6,-23 -4,-4 -10,-7 -19,-10z"/>
    <path id="4" class="fil0" d="M3060 1448c24,0 41,6 51,17 10,11 15,30 15,56 0,27 -5,46 -15,57 -10,11 -27,16 -51,16 -23,0 -40,-5 -50,-16 -10,-11 -15,-30 -15,-57 0,-26 5,-45 15,-56 10,-11 27,-17 50,-17zm32 32c-6,-7 -16,-11 -32,-11 -15,0 -25,4 -31,11 -6,7 -9,21 -9,41 0,20 3,34 9,42 6,7 16,11 31,11 16,0 26,-4 32,-11 6,-8 9,-22 9,-42 0,-20 -3,-34 -9,-41z"/>
    <path id="5" class="fil0" d="M3188 1391l0 161c0,6 1,11 5,14 3,3 8,5 14,5l13 0 3 18c-5,3 -14,4 -25,4 -11,0 -19,-3 -25,-9 -6,-6 -9,-15 -9,-26l0 -167 24 0z"/>
    <path id="6" class="fil0" d="M3366 1452l0 139 -19 0 -2 -20c-21,15 -41,23 -60,23 -25,0 -38,-12 -38,-38l0 -104 25 0 0 97c-1,9 1,15 4,19 4,3 9,5 17,5 7,0 15,-1 22,-5 7,-3 16,-8 27,-15l0 -101 24 0z"/>
    <path id="7" class="fil0" d="M3445 1471l0 81c0,7 2,12 5,15 2,2 7,4 14,4l21 0 3 18c-9,3 -19,4 -31,4 -12,0 -21,-3 -27,-10 -6,-6 -9,-15 -9,-27l0 -85 -25 0 0 -18 25 -1 0 -41 24 0 0 41 44 0 0 19 -44 0z"/>
    <path id="8" class="fil0" d="M3527 1393l11 0c5,0 7,2 7,7l0 16c0,5 -2,8 -7,8l-11 0c-5,0 -8,-3 -8,-8l0 -16c0,-5 3,-7 8,-7zm17 198l-24 0 0 -139 24 0 0 139z"/>
    <path id="9" class="fil0" d="M3648 1448c24,0 41,6 51,17 10,11 15,30 15,56 0,27 -5,46 -15,57 -10,11 -27,16 -51,16 -23,0 -40,-5 -50,-16 -10,-11 -15,-30 -15,-57 0,-26 5,-45 15,-56 10,-11 27,-17 50,-17zm32 32c-6,-7 -16,-11 -32,-11 -15,0 -25,4 -31,11 -6,7 -8,21 -8,41 0,20 2,34 8,42 6,7 16,11 31,11 16,0 26,-4 32,-11 6,-8 9,-22 9,-42 0,-20 -3,-34 -9,-41z"/>
    <path id="10" class="fil0" d="M3772 1452l2 22c22,-17 43,-26 62,-26 25,0 38,13 38,39l0 104 -25 0 0 -98c0,-9 -1,-15 -4,-19 -3,-3 -8,-5 -16,-5 -7,0 -15,2 -23,5 -7,3 -17,9 -30,17l0 100 -24 0 0 -139 20 0z"/>
    <path id="11" class="fil0" d="M3980 1534l-39 -9c-12,-2 -20,-7 -25,-13 -4,-5 -7,-14 -7,-25 0,-16 4,-26 12,-31 8,-6 22,-8 42,-8 23,1 42,2 59,5l-2 17c-29,-1 -47,-1 -53,-1 -14,0 -23,1 -28,2 -4,2 -6,7 -6,16 0,6 1,11 4,13 3,3 8,5 16,6l41 10c11,2 19,7 24,12 5,6 8,14 8,26 0,16 -5,27 -14,32 -9,5 -24,8 -46,8 -19,0 -37,-2 -54,-4l2 -18c16,1 32,1 48,1 16,0 27,-1 32,-4 6,-2 8,-7 8,-15 0,-6 -1,-11 -5,-13 -3,-3 -9,-5 -17,-7z"/>
    <path id="12" class="fil0" d="M4253 1569l2 18c-15,5 -35,7 -57,7 -28,0 -48,-8 -60,-23 -12,-15 -17,-41 -17,-79 0,-37 5,-63 17,-79 12,-15 32,-22 60,-22 20,0 38,1 53,5l-2 19c-17,-1 -34,-2 -51,-2 -19,0 -33,6 -40,17 -7,11 -11,32 -11,62 0,30 4,51 11,63 7,11 21,17 40,17 22,0 40,-1 55,-3z"/>
    <path id="13" class="fil0" d="M4347 1448c24,0 40,6 50,17 10,11 15,30 15,56 0,27 -5,46 -15,57 -10,11 -26,16 -50,16 -24,0 -41,-5 -51,-16 -10,-11 -15,-30 -15,-57 0,-26 5,-45 15,-56 10,-11 27,-17 51,-17zm31 32c-6,-7 -16,-11 -31,-11 -16,0 -26,4 -32,11 -5,7 -8,21 -8,41 0,20 3,34 8,42 6,7 16,11 32,11 15,0 25,-4 31,-11 6,-8 9,-22 9,-42 0,-20 -3,-34 -9,-41z"/>
    <path id="14" class="fil0" d="M4470 1452l2 22c22,-17 43,-26 62,-26 25,0 38,13 38,39l0 104 -25 0 0 -98c0,-9 -1,-15 -4,-19 -3,-3 -8,-5 -15,-5 -8,0 -16,2 -23,5 -8,3 -18,9 -31,17l0 100 -24 0 0 -139 20 0z"/>
    <path id="15" class="fil0" d="M4650 1471l0 81c0,7 1,12 4,15 3,2 8,4 15,4l21 0 3 18c-9,3 -19,4 -32,4 -11,0 -20,-3 -26,-10 -6,-6 -9,-15 -9,-27l0 -85 -25 0 0 -18 25 -1 0 -41 24 0 0 41 44 0 0 19 -44 0z"/>
    <path id="16" class="fil0" d="M4730 1557l8 0c4,0 6,1 7,2 2,1 2,4 2,7l0 15c0,4 0,6 -2,8 -1,1 -3,2 -7,2l-8 0c-3,0 -5,-1 -7,-2 -1,-2 -2,-4 -2,-8l0 -15c0,-3 1,-6 2,-7 2,-1 4,-2 7,-2z"/>
    <path id="17" class="fil0" d="M5013 1394l28 0c7,0 10,3 10,10l9 187 -26 0 -7 -176 -6 0 -44 145c-1,5 -5,8 -10,8l-23 0c-6,0 -10,-3 -11,-8l-44 -145 -6 0 -7 176 -25 0 8 -187c0,-7 4,-10 10,-10l29 0c5,0 9,3 10,9l37 119c1,4 3,9 5,16 1,6 2,10 3,11l5 0c0,-2 1,-6 3,-12 2,-7 3,-12 4,-15l37 -119c1,-6 5,-9 11,-9z"/>
    <path id="18" class="fil0" d="M5103 1473l-2 -18c26,-5 48,-7 67,-7 16,0 28,4 36,10 8,7 12,19 12,35l0 98 -19 0 -3 -23c-7,6 -15,12 -25,17 -10,6 -21,8 -33,8 -12,0 -22,-3 -30,-10 -7,-7 -11,-16 -11,-29l0 -15c0,-11 3,-19 10,-25 7,-6 16,-9 28,-9l58 0 0 -12c0,-9 -2,-15 -6,-19 -4,-3 -11,-5 -22,-5 -14,0 -34,1 -60,4zm17 70l0 9c0,7 1,12 5,15 3,4 9,5 16,5 7,1 16,-1 25,-5 9,-3 18,-9 25,-15l0 -28 -53 0c-7,0 -11,1 -14,5 -3,3 -4,8 -4,14z"/>
    <path id="19" class="fil0" d="M5279 1452l2 22c23,-17 43,-26 62,-26 25,0 38,13 38,39l0 104 -24 0 0 -98c0,-9 -2,-15 -5,-19 -3,-3 -8,-5 -15,-5 -8,0 -16,2 -23,5 -8,3 -18,9 -31,17l0 100 -24 0 0 -139 20 0z"/>
    <path id="20" class="fil0" d="M5425 1473l-2 -18c26,-5 48,-7 67,-7 16,0 28,4 36,10 8,7 12,19 12,35l0 98 -19 0 -3 -23c-7,6 -15,12 -25,17 -10,6 -21,8 -33,8 -12,0 -22,-3 -30,-10 -7,-7 -11,-16 -11,-29l0 -15c0,-11 3,-19 10,-25 7,-6 16,-9 28,-9l58 0 0 -12c0,-9 -2,-15 -6,-19 -4,-3 -11,-5 -22,-5 -14,0 -34,1 -60,4zm17 70l0 9c0,7 1,12 5,15 3,4 9,5 16,5 7,1 16,-1 25,-5 9,-3 18,-9 25,-15l0 -28 -53 0c-7,0 -12,1 -14,5 -3,3 -4,8 -4,14z"/>
    <path id="21" class="fil0" d="M5710 1465l-20 2c3,6 5,15 5,26 0,15 -4,26 -13,33 -9,7 -25,11 -46,11 -11,0 -21,-1 -29,-3 -4,4 -5,9 -3,14 1,5 6,9 13,10l51 8c13,2 22,6 28,12 5,6 7,15 7,27 0,16 -4,27 -14,34 -10,6 -27,9 -52,9 -25,0 -42,-3 -52,-9 -10,-6 -15,-17 -15,-33 0,-8 2,-15 6,-20 3,-5 9,-9 17,-14 -7,-5 -10,-13 -10,-22 1,-9 4,-16 11,-21 -12,-6 -18,-18 -18,-36 0,-16 5,-28 14,-34 8,-7 24,-11 46,-11 13,0 24,2 32,4l43 0 -1 13zm-103 47c5,4 15,6 29,6 13,0 23,-2 28,-6 6,-4 9,-10 9,-19 0,-10 -3,-16 -8,-20 -6,-4 -15,-6 -29,-6 -14,0 -24,2 -29,6 -6,4 -8,10 -8,20 0,9 2,15 8,19zm49 72l-47 -7c-10,8 -15,17 -15,27 0,10 3,16 9,19 5,3 17,5 34,5 17,0 28,-2 34,-5 6,-3 9,-10 9,-19 0,-7 -2,-12 -5,-14 -3,-2 -9,-4 -19,-6z"/>
    <path id="22" class="fil0" d="M5823 1533l-64 0c1,16 5,27 11,32 7,6 18,8 33,8 15,0 31,-1 48,-3l2 16c-12,5 -30,8 -54,8 -23,0 -41,-6 -51,-17 -10,-11 -15,-30 -15,-56 0,-27 5,-46 15,-57 10,-10 26,-16 49,-16 21,0 36,4 45,12 10,7 14,18 14,34 1,26 -10,39 -33,39zm-65 -19l59 0c10,0 15,-7 15,-20 0,-9 -3,-16 -8,-19 -5,-4 -14,-6 -26,-6 -15,0 -25,3 -30,9 -6,7 -9,19 -10,36z"/>
    <path id="23" class="fil0" d="M5913 1452l1 22c20,-17 39,-26 57,-26 19,0 31,9 35,25 19,-16 37,-25 56,-25 12,0 21,4 27,10 7,7 10,16 10,29l0 104 -24 0 0 -98c0,-8 -2,-14 -5,-18 -4,-4 -9,-6 -17,-6 -6,0 -13,1 -19,4 -6,3 -15,9 -26,18l0 100 -24 0 0 -98c0,-8 -1,-15 -5,-18 -3,-4 -9,-6 -16,-6 -7,0 -13,1 -19,4 -7,3 -15,9 -27,17l0 101 -24 0 0 -139 20 0z"/>
    <path id="24" class="fil0" d="M6226 1533l-65 0c2,16 6,27 12,32 6,6 17,8 32,8 16,0 32,-1 48,-3l3 16c-12,5 -30,8 -54,8 -24,0 -41,-6 -51,-17 -10,-11 -15,-30 -15,-56 0,-27 5,-46 15,-57 9,-10 26,-16 49,-16 20,0 35,4 45,12 9,7 14,18 14,34 0,26 -11,39 -33,39zm-65 -19l59 0c10,0 15,-7 15,-20 0,-9 -3,-16 -8,-19 -5,-4 -14,-6 -26,-6 -15,0 -25,3 -31,9 -6,7 -9,19 -9,36z"/>
    <path id="25" class="fil0" d="M6316 1452l2 22c22,-17 43,-26 62,-26 25,0 38,13 38,39l0 104 -25 0 0 -98c0,-9 -1,-15 -4,-19 -3,-3 -8,-5 -16,-5 -7,0 -15,2 -23,5 -7,3 -17,9 -30,17l0 100 -24 0 0 -139 20 0z"/>
    <path id="26" class="fil0" d="M6496 1471l0 81c0,7 1,12 4,15 3,2 8,4 15,4l21 0 3 18c-9,3 -20,4 -32,4 -11,0 -20,-3 -26,-10 -6,-6 -9,-15 -9,-27l0 -85 -25 0 0 -18 25 -1 0 -41 24 0 0 41 44 0 0 19 -44 0z"/>
    <path id="27" class="fil0" d="M6706 1507l-41 -10c-13,-3 -23,-9 -29,-18 -6,-9 -9,-21 -9,-37 0,-11 1,-20 3,-27 3,-7 7,-12 12,-16 6,-3 13,-6 20,-7 7,-1 17,-1 28,-1 24,0 43,2 59,5l-2 18c-18,0 -37,-1 -55,-1 -9,0 -15,0 -19,1 -4,0 -8,1 -12,3 -3,2 -6,5 -7,9 -1,4 -2,10 -2,17 0,10 2,18 6,22 3,5 10,8 19,10l40 10c14,4 25,10 30,19 6,8 9,21 9,36 0,22 -5,36 -14,43 -10,7 -27,11 -52,11 -20,0 -41,-2 -60,-5l1 -19c32,1 52,2 60,1 16,0 26,-2 32,-6 5,-4 8,-12 8,-25 0,-11 -2,-19 -6,-23 -3,-4 -10,-7 -19,-10z"/>
    <path id="28" class="fil0" d="M6916 1452l-55 146c-13,33 -33,50 -61,51l-2 -16c10,-3 19,-8 25,-14 6,-6 11,-13 15,-22l2 -6 -5 0c-5,0 -7,-3 -9,-7l-50 -132 26 0 37 103c2,8 4,14 5,17l4 0c1,-4 3,-9 6,-17l36 -103 26 0z"/>
    <path id="29" class="fil0" d="M7007 1534l-40 -9c-11,-2 -19,-7 -24,-13 -5,-5 -7,-14 -7,-25 0,-16 4,-26 12,-31 8,-6 22,-8 42,-8 22,1 42,2 58,5l-2 17c-28,-1 -46,-1 -52,-1 -14,0 -24,1 -28,2 -4,2 -7,7 -7,16 0,6 2,11 5,13 3,3 8,5 16,6l40 10c12,2 20,7 25,12 5,6 7,14 7,26 0,16 -4,27 -13,32 -9,5 -24,8 -46,8 -19,0 -37,-2 -54,-4l1 -18c17,1 32,1 48,1 16,0 27,-1 33,-4 5,-2 8,-7 8,-15 0,-6 -2,-11 -5,-13 -3,-3 -9,-5 -17,-7z"/>
    <path id="30" class="fil0" d="M7095 1557l8 0c3,0 6,1 7,2 1,1 2,4 2,7l0 15c0,4 -1,6 -2,8 -1,1 -4,2 -7,2l-8 0c-3,0 -6,-1 -7,-2 -2,-2 -2,-4 -2,-8l0 -15c0,-3 0,-6 2,-7 1,-1 4,-2 7,-2z"/>
    <path class="fil0" d="M3314 357l-191 716c-10,41 -37,61 -80,61l-183 0c-21,0 -39,-6 -55,-19 -16,-13 -25,-30 -28,-51l-79 -440c-1,-10 -4,-30 -7,-60 -4,-31 -7,-54 -11,-71l-19 0 -18 131 -78 440c-3,21 -12,38 -28,51 -16,13 -35,19 -57,19l-180 0c-43,0 -69,-20 -80,-61l-191 -716 235 0 106 505c10,56 17,99 19,127l20 0c2,-14 6,-36 10,-64 5,-29 9,-50 11,-63l79 -435c7,-47 34,-70 80,-70l164 0c21,0 39,7 54,19 16,13 25,30 28,52l77 434c2,14 6,36 11,64 5,29 9,50 11,63l19 0 19 -127 107 -505 235 0z"/>
    <path id="1" class="fil0" d="M3757 846l-194 -52c-71,-21 -121,-50 -148,-86 -27,-36 -41,-86 -41,-151 0,-80 25,-138 75,-171 50,-34 135,-51 256,-51 140,2 260,12 359,30l-15 150c-133,-2 -233,-3 -300,-3 -37,0 -62,0 -76,1 -15,0 -29,2 -43,5 -14,3 -23,8 -26,15 -3,7 -5,17 -5,31 0,5 1,10 1,14 1,4 2,8 4,12 2,3 4,6 6,8 1,3 4,5 8,8 4,2 8,4 10,5 3,1 8,3 15,6 6,2 12,4 15,5 4,1 11,3 21,6 10,2 18,4 23,5l198 54c70,20 119,46 149,79 29,33 44,83 44,148 0,92 -27,155 -81,188 -53,33 -145,50 -276,50 -126,0 -242,-9 -348,-27l14 -151c38,2 128,3 270,3 81,0 134,-4 158,-10 25,-7 37,-23 37,-49 0,-5 0,-9 0,-14 -1,-4 -2,-8 -4,-12 -3,-3 -5,-6 -7,-8 -2,-2 -5,-5 -10,-7 -5,-3 -8,-5 -11,-7 -3,-1 -8,-3 -15,-6 -7,-3 -13,-4 -17,-5 -5,-1 -12,-3 -22,-6 -11,-3 -19,-5 -24,-7z"/>
    <path id="2" class="fil0" d="M4856 950l20 151c-80,35 -180,52 -301,52 -143,0 -244,-30 -302,-92 -58,-61 -87,-167 -87,-316 0,-150 29,-256 88,-318 59,-61 160,-92 304,-92 118,0 213,16 287,49l-25 145c-114,-2 -188,-3 -222,-3 -72,0 -121,15 -148,46 -27,30 -40,88 -40,173 0,85 13,143 40,173 27,31 76,46 148,46 91,0 170,-5 238,-14z"/>
    <path id="3" class="fil0" d="M5180 357l16 114c99,-91 198,-136 296,-136 105,0 172,42 201,126 91,-84 186,-126 283,-126 71,0 124,19 161,55 37,37 55,91 55,161l0 583 -231 0 0 -510c0,-34 -6,-58 -18,-71 -11,-14 -33,-21 -64,-21 -26,0 -50,5 -73,14 -23,10 -57,28 -101,56l0 532 -224 0 0 -510c0,-34 -6,-58 -19,-71 -14,-14 -35,-21 -64,-21 -41,0 -99,23 -172,68l0 534 -232 0 0 -777 186 0z"/>
    <path id="4" class="fil0" d="M6700 846l-194 -52c-72,-21 -121,-50 -148,-86 -28,-36 -41,-86 -41,-151 0,-80 25,-138 75,-171 49,-34 135,-51 256,-51 139,2 259,12 359,30l-16 150c-132,-2 -232,-3 -299,-3 -37,0 -62,0 -77,1 -14,0 -28,2 -42,5 -14,3 -23,8 -26,15 -3,7 -5,17 -5,31 0,5 0,10 1,14 0,4 2,8 4,12 2,3 4,6 5,8 2,3 5,5 9,8 4,2 8,4 10,5 3,1 8,3 14,6 7,2 13,4 16,5 4,1 11,3 21,6 10,2 17,4 23,5l198 54c70,20 119,46 148,79 30,33 45,83 45,148 0,92 -27,155 -81,188 -53,33 -145,50 -276,50 -126,0 -242,-9 -348,-27l14 -151c38,2 128,3 270,3 81,0 133,-4 158,-10 25,-7 37,-23 37,-49 0,-5 0,-9 -1,-14 0,-4 -2,-8 -4,-12 -2,-3 -4,-6 -6,-8 -2,-2 -5,-5 -10,-7 -5,-3 -9,-5 -11,-7 -3,-1 -8,-3 -15,-6 -8,-3 -13,-4 -18,-5 -4,-1 -11,-3 -22,-6 -10,-3 -18,-5 -23,-7z"/>
   </g>
   <g>
    <path class="fil1" d="M1174 242c439,254 373,139 373,646 0,458 54,408 -259,581 -34,19 -72,40 -114,65 -232,133 -304,197 -386,189 -72,-6 -152,-70 -360,-189 -439,-254 -372,-139 -372,-646 0,-507 -67,-392 372,-646 440,-253 307,-253 746,0z"/>
    <g style="clip-path:url(#id0)">
     <g>
      <path id="1" class="fil2" d="M863 1757l-378 -633 137 -31 89 -119c0,0 88,-291 92,-322 4,-30 78,92 78,92l80 347 103 -68 192 -401 382 819 -775 316z"/>
     </g>
    </g>
    <path class="fil3" d="M1174 242c439,254 373,139 373,646 0,458 54,408 -259,581 -34,19 -72,40 -114,65 -232,133 -304,197 -386,189 -72,-6 -152,-70 -360,-189 -439,-254 -372,-139 -372,-646 0,-507 -67,-392 372,-646 440,-253 307,-253 746,0z"/>
    <path class="fil4" d="M1122 190c439,254 373,138 373,646 0,458 54,408 -259,581 -34,19 -72,40 -114,64 -232,134 -304,198 -386,190 -72,-7 -152,-70 -360,-190 -439,-253 -372,-138 -372,-645 0,-507 -67,-392 372,-646 440,-253 306,-253 746,0z"/>
    <g style="clip-path:url(#id1)">
     <g>
      <path id="1" class="fil2" d="M811 1705l-379 -633 138 -31 89 -119c0,0 88,-291 92,-322 4,-30 78,92 78,92l80 347 103 -68 192 -401 382 819 -775 316z"/>
     </g>
    </g>
    <path class="fil3" d="M1122 190c439,254 373,138 373,646 0,458 54,408 -259,581 -34,19 -72,40 -114,64 -232,134 -304,198 -386,190 -72,-7 -152,-70 -360,-190 -439,-253 -372,-138 -372,-645 0,-507 -67,-392 372,-646 440,-253 306,-253 746,0z"/>
    <path class="fil5" d="M1204 570l-117 481c-4,16 -12,29 -23,37 -12,9 -26,14 -43,14l-142 0c-17,0 -32,-6 -45,-16 -13,-11 -20,-25 -22,-42l-41 -269c-1,-7 -4,-38 -10,-92l-12 0c-4,35 -8,66 -11,92l-41 269c-2,17 -9,31 -22,42 -13,10 -28,16 -45,16l-140 0c-17,0 -31,-5 -43,-14 -11,-8 -19,-21 -23,-37l-117 -481 193 0 54 320c6,42 9,72 11,91l12 0c2,-17 6,-48 12,-91l41 -263c2,-17 9,-30 22,-41 12,-11 27,-16 44,-16l118 0c17,0 32,5 44,16 13,11 20,25 22,42l40 262c0,4 2,18 6,40 3,23 5,39 7,51l12 0c5,-40 9,-70 12,-91l53 -320 194 0z"/>
    <path class="fil6" d="M570 1102l-80 0c-17,0 -31,-5 -43,-14 -11,-8 -19,-21 -23,-37l-117 -481 193 0 54 320c6,42 9,72 11,91l5 0 0 121z"/>
    <path class="fil6" d="M941 1102l80 0c17,0 31,-5 43,-14 11,-8 19,-21 23,-37l117 -481 -193 0 -54 320c-5,42 -9,72 -10,91l-6 0 0 121z"/>
   </g>
  </g>
 </g>
</svg>
