<?xml version="1.0" encoding="UTF-8"?>
<!DOCTYPE svg PUBLIC "-//W3C//DTD SVG 1.1//EN" "http://www.w3.org/Graphics/SVG/1.1/DTD/svg11.dtd">
<!-- Creator: CorelDRAW -->
<svg xmlns="http://www.w3.org/2000/svg" xml:space="preserve" width="188.59mm" height="51.3824mm" style="shape-rendering:geometricPrecision; text-rendering:geometricPrecision; image-rendering:optimizeQuality; fill-rule:evenodd; clip-rule:evenodd"
viewBox="0 0 172.692 47.051"
 xmlns:xlink="http://www.w3.org/1999/xlink">
 <defs>
  <style type="text/css">
   <![CDATA[
    .fil3 {fill:none}
    .fil2 {fill:#007A7A}
    .fil0 {fill:#434242;fill-rule:nonzero}
    .fil4 {fill:#EBECEC;fill-rule:nonzero}
    .fil5 {fill:#FEFEFE;fill-rule:nonzero}
    .fil1 {fill:url(#id1)}
   ]]>
  </style>
    <clipPath id="id0">
     <path d="M31.5747 5.35493c12.3667,7.1401 10.491,3.89082 10.491,18.171 0,12.896 1.52831,11.4969 -7.28368,16.3633 -0.945646,0.522225 -2.00887,1.11578 -3.20734,1.80769 -6.52777,3.76876 -8.56465,5.54732 -10.8517,5.33735 -2.04559,-0.187719 -4.29135,-1.9662 -10.1303,-5.33735 -12.3667,-7.1401 -10.491,-3.89082 -10.491,-18.171 0,-14.2799 -1.87572,-11.031 10.491,-18.171 12.3667,-7.13982 8.6152,-7.13991 20.982,0z"/>
    </clipPath>
  <linearGradient id="id1" gradientUnits="userSpaceOnUse" x1="19.8941" y1="46.128" x2="22.2733" y2="0.923852">
   <stop offset="0" style="stop-color:#009D9D"/>
   <stop offset="1" style="stop-color:#007070"/>
  </linearGradient>
 </defs>
 <g id="Layer_x0020_1">
  <metadata id="CorelCorpID_0Corel-Layer"/>
  <path class="fil0" d="M84.7308 10.1981l-4.43905 16.6559c-0.244584,0.953887 -0.868269,1.43078 -1.87105,1.43078l-4.25573 0c-0.489168,0 -0.917167,-0.152831 -1.284,-0.458584 -0.366922,-0.305753 -0.587057,-0.703168 -0.660404,-1.19234l-1.83433 -10.2356c-0.0244492,-0.220135 -0.079483,-0.684854 -0.165101,-1.39416 -0.0856182,-0.709303 -0.165101,-1.25955 -0.238449,-1.65092l-0.44027 0 -0.44027 3.04508 -1.79761 10.2356c-0.0733477,0.489168 -0.293483,0.886583 -0.660404,1.19234 -0.36683,0.305753 -0.8071,0.458584 -1.32072,0.458584l-4.18229 0c-1.00279,0 -1.62647,-0.476898 -1.87105,-1.43078l-4.43914 -16.6559 5.46638 0 2.45802 11.7399c0.244584,1.32072 0.391371,2.31123 0.44027,2.97164l0.476898 0c0.0488985,-0.342381 0.128473,-0.84382 0.238449,-1.50422 0.110067,-0.660313 0.18955,-1.14948 0.23854,-1.46741l1.83433 -10.1257c0.171145,-1.07613 0.79483,-1.6142 1.87105,-1.6142l3.81536 0c0.489168,0 0.911124,0.146787 1.26578,0.44027 0.35456,0.293483 0.568651,0.697033 0.641999,1.21065l1.79761 10.0889c0.0489901,0.342381 0.134517,0.84382 0.256854,1.50413 0.122246,0.660404 0.207864,1.14957 0.256763,1.4675l0.44027 0 0.44027 -2.97164 2.49474 -11.7399 5.46628 0z"/>
  <path id="1" class="fil0" d="M95.0344 21.571l-4.51249 -1.21065c-1.66319,-0.489168 -2.81267,-1.15562 -3.44853,-1.99944 -0.635955,-0.84382 -0.953887,-2.01171 -0.953887,-3.50357 0,-1.88332 0.58083,-3.21622 1.74258,-3.99887 1.16175,-0.782651 3.14901,-1.17402 5.96168,-1.17402 3.25294,0.0488985 6.04107,0.281304 8.36457,0.697033l-0.36683 3.48525c-3.0817,-0.0488985 -5.40521,-0.0733477 -6.97051,-0.0733477 -0.85609,0 -1.44919,0.0061352 -1.7793,0.018314 -0.330202,0.0122704 -0.660404,0.0550337 -0.990607,0.128473 -0.330202,0.0733477 -0.531931,0.18955 -0.605279,0.348516 -0.0734393,0.158966 -0.110067,0.397415 -0.110067,0.715347 0,0.122338 0.0061352,0.232405 0.018314,0.330202 0.0122704,0.097797 0.0427633,0.18955 0.0917534,0.275169 0.0488985,0.0856182 0.0916618,0.152831 0.128381,0.201729 0.0367197,0.0489901 0.103932,0.104024 0.201729,0.165101 0.0978886,0.0611689 0.177372,0.103932 0.23854,0.128473 0.0610773,0.0244492 0.171145,0.0672125 0.330111,0.128381 0.159057,0.0611689 0.281304,0.103932 0.366922,0.128381 0.0856182,0.0244492 0.244584,0.0673041 0.476898,0.128381 0.232405,0.0611689 0.409685,0.103932 0.532023,0.128473l4.62256 1.24728c1.6142,0.464719 2.76368,1.08227 3.44853,1.85274 0.684854,0.77038 1.02723,1.91382 1.02723,3.43022 0,2.15227 -0.623685,3.61364 -1.87105,4.38411 -1.24737,0.77038 -3.38737,1.15562 -6.42017,1.15562 -2.93501,0 -5.63761,-0.207864 -8.10781,-0.623685l0.330111 -3.52197c0.880539,0.0489901 2.97164,0.0734393 6.27348,0.0734393 1.88332,0 3.11229,-0.079483 3.68707,-0.238449 0.574786,-0.159057 0.862134,-0.532023 0.862134,-1.11899 0,-0.122338 -0.0061352,-0.232314 -0.018314,-0.330202 -0.0122704,-0.097797 -0.0428549,-0.18955 -0.0917534,-0.275169 -0.0488985,-0.0856182 -0.097797,-0.152831 -0.146695,-0.201729 -0.0489901,-0.0488985 -0.128473,-0.103932 -0.23854,-0.165101 -0.110067,-0.0611689 -0.195594,-0.110067 -0.256763,-0.146787 -0.0611689,-0.0366281 -0.177372,-0.0856182 -0.348516,-0.146695 -0.171236,-0.0611689 -0.305753,-0.103932 -0.40355,-0.128473 -0.0978886,-0.0244492 -0.269033,-0.0672125 -0.513617,-0.128381 -0.244584,-0.0611689 -0.427999,-0.116111 -0.550337,-0.165101z"/>
  <path id="12" class="fil0" d="M120.6 23.9924l0.476898 3.52188c-1.85878,0.807191 -4.19447,1.21074 -7.00714,1.21074 -3.32629,0 -5.6682,-0.715438 -7.02563,-2.14622 -1.35735,-1.43078 -2.03606,-3.88267 -2.03606,-7.35574 0,-3.49743 0.684762,-5.96159 2.05447,-7.39237 1.36962,-1.43078 3.72984,-2.14622 7.08058,-2.14622 2.73932,0 4.96494,0.379101 6.67703,1.1373l-0.586965 3.37519c-2.64153,-0.0488985 -4.36579,-0.0733477 -5.17289,-0.0733477 -1.66319,0 -2.80654,0.354651 -3.43022,1.06386 -0.623685,0.709303 -0.935573,2.05447 -0.935573,4.03559 0,1.98112 0.311888,3.32629 0.935573,4.03559 0.623685,0.709303 1.76703,1.06395 3.43022,1.06395 2.12782,0 3.97442,-0.110067 5.53972,-0.330202z"/>
  <path id="123" class="fil0" d="M128.152 10.1981l0.366922 2.64143c2.29896,-2.10337 4.59802,-3.15505 6.89707,-3.15505 2.44584,0 3.99896,0.978336 4.65928,2.93492 2.12782,-1.95658 4.32907,-2.93492 6.60368,-2.93492 1.63865,0 2.88602,0.427999 3.74202,1.28409 0.85609,0.855998 1.28409,2.10337 1.28409,3.74202l0 13.5742 -5.39303 0 0 -11.8865c0,-0.782651 -0.134517,-1.33299 -0.40355,-1.65092 -0.269033,-0.318023 -0.77038,-0.476989 -1.50413,-0.476989 -0.586965,0 -1.14957,0.110067 -1.68764,0.330202 -0.538067,0.220135 -1.32072,0.648134 -2.34795,1.28409l0 12.4002 -5.20952 0 0 -11.8865c0,-0.782651 -0.152831,-1.33299 -0.458584,-1.65092 -0.305753,-0.318023 -0.800965,-0.476989 -1.48582,-0.476989 -0.953887,0 -2.28687,0.525888 -3.99887,1.57757l0 12.4369 -5.39303 0 0 -18.0867 4.32907 0z"/>
  <path id="1234" class="fil0" d="M163.512 21.571l-4.51249 -1.21065c-1.66319,-0.489168 -2.81267,-1.15562 -3.44853,-1.99944 -0.635955,-0.84382 -0.953887,-2.01171 -0.953887,-3.50357 0,-1.88332 0.58083,-3.21622 1.74258,-3.99887 1.16175,-0.782651 3.14901,-1.17402 5.96168,-1.17402 3.25294,0.0488985 6.04107,0.281304 8.36457,0.697033l-0.36683 3.48525c-3.0817,-0.0488985 -5.40521,-0.0733477 -6.97051,-0.0733477 -0.85609,0 -1.44919,0.0061352 -1.7793,0.018314 -0.330202,0.0122704 -0.660404,0.0550337 -0.990607,0.128473 -0.330202,0.0733477 -0.531931,0.18955 -0.605279,0.348516 -0.0734393,0.158966 -0.110067,0.397415 -0.110067,0.715347 0,0.122338 0.0061352,0.232405 0.018314,0.330202 0.0122704,0.097797 0.0427633,0.18955 0.0917534,0.275169 0.0488985,0.0856182 0.0916618,0.152831 0.128381,0.201729 0.0367197,0.0489901 0.103932,0.104024 0.201729,0.165101 0.0978886,0.0611689 0.177372,0.103932 0.23854,0.128473 0.0610773,0.0244492 0.171145,0.0672125 0.330111,0.128381 0.159057,0.0611689 0.281304,0.103932 0.366922,0.128381 0.0856182,0.0244492 0.244584,0.0673041 0.476898,0.128381 0.232405,0.0611689 0.409685,0.103932 0.532023,0.128473l4.62256 1.24728c1.6142,0.464719 2.76368,1.08227 3.44853,1.85274 0.684854,0.77038 1.02723,1.91382 1.02723,3.43022 0,2.15227 -0.623685,3.61364 -1.87105,4.38411 -1.24737,0.77038 -3.38737,1.15562 -6.42017,1.15562 -2.93501,0 -5.63761,-0.207864 -8.10781,-0.623685l0.330111 -3.52197c0.880539,0.0489901 2.97164,0.0734393 6.27348,0.0734393 1.88332,0 3.11229,-0.079483 3.68707,-0.238449 0.574786,-0.159057 0.862134,-0.532023 0.862134,-1.11899 0,-0.122338 -0.0061352,-0.232314 -0.018314,-0.330202 -0.0122704,-0.097797 -0.0428549,-0.18955 -0.0917534,-0.275169 -0.0488985,-0.0856182 -0.097797,-0.152831 -0.146695,-0.201729 -0.0489901,-0.0488985 -0.128473,-0.103932 -0.23854,-0.165101 -0.110067,-0.0611689 -0.195594,-0.110067 -0.256763,-0.146787 -0.0611689,-0.0366281 -0.177372,-0.0856182 -0.348516,-0.146695 -0.171236,-0.0611689 -0.305753,-0.103932 -0.40355,-0.128473 -0.0978886,-0.0244492 -0.269033,-0.0672125 -0.513617,-0.128381 -0.244584,-0.0611689 -0.427999,-0.116111 -0.550337,-0.165101z"/>
  <path class="fil0" d="M63.9002 35.0865l-0.92724 4.39803c-0.0309507,0.114829 -0.108236,0.172244 -0.231856,0.172244l-0.662327 0c-0.128107,0 -0.203103,-0.0596122 -0.225263,-0.178837l-0.715255 -3.43764c-0.0265554,-0.114829 -0.0619015,-0.286981 -0.106038,-0.516639l-0.139095 0 -0.0993537 0.516639 -0.708662 3.43764c-0.0309507,0.119224 -0.108236,0.178837 -0.231856,0.178837l-0.669012 0c-0.0574145,0 -0.107046,-0.0165742 -0.148985,-0.0496311 -0.0419392,-0.0331484 -0.0673957,-0.0739887 -0.0761864,-0.122613l-0.927332 -4.39803 0.615993 0 0.715347 3.56346c0.00888231,0.0397415 0.0397415,0.22746 0.0927606,0.563065l0.152373 0c0.0352545,-0.20759 0.0706006,-0.395217 0.105947,-0.563065l0.708754 -3.37134c0.0220684,-0.128107 0.0970644,-0.192114 0.225171,-0.192114l0.635864 0c0.119224,0 0.194312,0.0640076 0.225171,0.192114l0.708754 3.37134c0.0441368,0.21638 0.0750876,0.404099 0.0926691,0.563065l0.165651 0c0.0397415,-0.265004 0.068403,-0.450434 0.086076,-0.556381l0.72194 -3.57014 0.615993 0z"/>
  <path id="1" class="fil0" d="M66.5629 38.3188l-1.50358 0c0.0309507,0.370859 0.121422,0.620388 0.271597,0.748403 0.150084,0.128107 0.399612,0.192114 0.748403,0.192114 0.366556,0 0.739613,-0.0264638 1.11945,-0.079483l0.0596122 0.377544c-0.287073,0.119224 -0.704358,0.178837 -1.25186,0.178837 -0.556381,0 -0.952697,-0.129114 -1.18895,-0.387434 -0.236251,-0.25832 -0.354377,-0.696666 -0.354377,-1.31486 0,-0.622586 0.114829,-1.05864 0.344396,-1.30808 0.229658,-0.249529 0.6094,-0.374247 1.13932,-0.374247 0.481293,0 0.832282,0.0871748 1.05315,0.261616 0.220776,0.174441 0.331118,0.438255 0.331118,0.791533 0.00888231,0.609308 -0.24724,0.914054 -0.768274,0.914054zm-1.51018 -0.437156l1.3644 0c0.234053,0 0.35108,-0.158966 0.35108,-0.476898 -0.00439537,-0.20759 -0.0662053,-0.355476 -0.18543,-0.443841 -0.119224,-0.0882737 -0.322419,-0.132411 -0.6094,-0.132411 -0.34,0 -0.576251,0.0739887 -0.708754,0.221875 -0.132411,0.147886 -0.203103,0.424977 -0.211893,0.831274z"/>
  <path id="12" class="fil0" d="M68.7289 35.0203l0 1.20552c0,0.309049 -0.0198707,0.547498 -0.0596122,0.715255 0.384137,-0.392928 0.799225,-0.589438 1.24517,-0.589438 0.40181,0 0.696575,0.131312 0.884294,0.394118 0.187627,0.262715 0.281487,0.692088 0.281487,1.28821 0,0.582936 -0.105947,1.01231 -0.317932,1.2883 -0.211985,0.275993 -0.582844,0.413989 -1.11276,0.413989 -0.551985,0 -1.04656,-0.0772853 -1.48371,-0.231856l0 -4.4841 0.563065 0zm0 2.29832l0 1.82811c0.295772,0.0839699 0.59832,0.121422 0.907369,0.112631 0.313536,-0.00439537 0.534312,-0.0960572 0.662419,-0.274894 0.128015,-0.178837 0.19422,-0.49567 0.198707,-0.950499 -0.00448694,-0.454738 -0.0596122,-0.767175 -0.165651,-0.937221 -0.105947,-0.169954 -0.311247,-0.255023 -0.615993,-0.255023 -0.154571,0 -0.303555,0.0375438 -0.447046,0.112631 -0.143491,0.0750876 -0.323518,0.19651 -0.539806,0.364266z"/>
  <path id="123" class="fil0" d="M75.1271 37.7227l-0.947111 -0.238449c-0.322419,-0.079483 -0.553084,-0.221875 -0.692179,-0.427267 -0.139095,-0.2053 -0.208689,-0.486787 -0.208689,-0.844461 0,-0.264913 0.0276542,-0.477997 0.0827795,-0.63916 0.0552168,-0.161164 0.150175,-0.282677 0.284875,-0.364358 0.1347,-0.0816806 0.284783,-0.135707 0.450342,-0.162262 0.165651,-0.0264638 0.387525,-0.0397415 0.665715,-0.0397415 0.538708,0.00888231 0.991339,0.0530192 1.3578,0.132502l-0.0397415 0.423879c-0.428274,-0.0220684 -0.858837,-0.0330568 -1.2916,-0.0330568 -0.194312,0 -0.337803,0.00439537 -0.430472,0.0131861 -0.0927606,0.00888231 -0.183324,0.0353461 -0.271597,0.079483 -0.0882737,0.0441368 -0.146787,0.11373 -0.17554,0.208689 -0.0286615,0.0948667 -0.043038,0.22627 -0.043038,0.394118 0,0.242844 0.043038,0.414996 0.129114,0.516548 0.0861676,0.101643 0.235152,0.178837 0.447137,0.231856l0.927332 0.231856c0.34,0.0838783 0.578449,0.227369 0.715347,0.430472 0.136806,0.203194 0.2053,0.487978 0.2053,0.854442 0,0.503453 -0.11373,0.836769 -0.341099,1.00022 -0.22746,0.163361 -0.623776,0.245042 -1.18895,0.245042 -0.481293,0 -0.953795,-0.0419392 -1.41742,-0.125817l0.0397415 -0.430563c0.74181,0.0264638 1.20763,0.0375438 1.39754,0.0331484 0.362069,0 0.606012,-0.0464261 0.731921,-0.139095 0.125817,-0.0927606 0.188726,-0.291468 0.188726,-0.596122 0,-0.251727 -0.043038,-0.427267 -0.129114,-0.52662 -0.0861676,-0.0993537 -0.235152,-0.17554 -0.447137,-0.228468z"/>
  <path id="1234" class="fil0" d="M78.5118 36.3516c0.556381,0 0.94821,0.128015 1.17567,0.384137 0.227369,0.256122 0.341099,0.693278 0.341099,1.31147 0,0.618191 -0.11373,1.05535 -0.341099,1.31147 -0.22746,0.256122 -0.619289,0.384137 -1.17567,0.384137 -0.551985,0 -0.942807,-0.128015 -1.17237,-0.384137 -0.229658,-0.256122 -0.344487,-0.693278 -0.344487,-1.31147 0,-0.618191 0.114829,-1.05535 0.344487,-1.31147 0.229567,-0.256122 0.620388,-0.384137 1.17237,-0.384137zm0.731829 0.735217c-0.134608,-0.172244 -0.378643,-0.25832 -0.731829,-0.25832 -0.353278,0 -0.596122,0.086076 -0.728624,0.25832 -0.132502,0.172152 -0.198707,0.492373 -0.198707,0.960388 0,0.468107 0.0662053,0.788236 0.198707,0.960388 0.132502,0.172244 0.375346,0.25832 0.728624,0.25832 0.353186,0 0.597221,-0.086076 0.731829,-0.25832 0.1347,-0.172152 0.202095,-0.492282 0.202095,-0.960388 0,-0.468015 -0.0673957,-0.788236 -0.202095,-0.960388z"/>
  <path id="12345" class="fil0" d="M81.4792 35.0203l0 3.74888c-0.00448694,0.141293 0.0308592,0.24843 0.105947,0.32132 0.0750876,0.0727983 0.18543,0.109243 0.331209,0.109243l0.311247 0 0.0662968 0.430563c-0.119224,0.0574145 -0.315734,0.086076 -0.589529,0.086076 -0.242844,0 -0.434959,-0.0717911 -0.576251,-0.215282 -0.141293,-0.143491 -0.211985,-0.345494 -0.211985,-0.606012l0 -3.87479 0.563065 0z"/>
  <path id="123456" class="fil0" d="M85.6189 36.4311l0 3.22565 -0.450434 0 -0.0397415 -0.46362c-0.485688,0.366464 -0.9494,0.549696 -1.39095,0.549696 -0.58724,0 -0.880906,-0.295863 -0.880906,-0.887499l0 -2.42423 0.562974 0 0 2.26526c-0.00439537,0.203103 0.0331484,0.346593 0.112631,0.430472 0.079483,0.0839699 0.211985,0.125909 0.397415,0.125909 0.163361,0 0.32892,-0.0364449 0.496768,-0.109335 0.167757,-0.0727983 0.377544,-0.190924 0.629271,-0.354377l0 -2.35793 0.562974 0z"/>
  <path id="1234567" class="fil0" d="M87.4603 36.8749l0 1.89431c0,0.154571 0.0330568,0.265004 0.0993537,0.331209 0.0662053,0.0662053 0.178837,0.0993537 0.337803,0.0993537l0.490084 0 0.0662968 0.430563c-0.203194,0.0574145 -0.446039,0.086076 -0.728624,0.086076 -0.2694,0 -0.4747,-0.0750876 -0.615993,-0.225171 -0.141293,-0.150175 -0.211985,-0.366556 -0.211985,-0.649141l0 -1.9672 -0.582844 0 0 -0.410692 0.582844 -0.0264638 0 -0.960388 0.563065 0 0 0.953795 1.02659 0 0 0.443749 -1.02659 0z"/>
  <path id="12345678" class="fil0" d="M89.348 35.06l0.264913 0c0.114829,0 0.172244,0.0574145 0.172244,0.172244l0 0.377544c0,0.114737 -0.0574145,0.172152 -0.172244,0.172152l-0.264913 0c-0.114829,0 -0.172244,-0.0574145 -0.172244,-0.172152l0 -0.377544c0,-0.114829 0.0574145,-0.172244 0.172244,-0.172244zm0.410601 4.59673l-0.556381 0 0 -3.22565 0.556381 0 0 3.22565z"/>
  <path id="123456789" class="fil0" d="M92.1829 36.3516c0.556381,0 0.94821,0.128015 1.17567,0.384137 0.227369,0.256122 0.341099,0.693278 0.341099,1.31147 0,0.618191 -0.11373,1.05535 -0.341099,1.31147 -0.22746,0.256122 -0.619289,0.384137 -1.17567,0.384137 -0.551985,0 -0.942807,-0.128015 -1.17237,-0.384137 -0.229658,-0.256122 -0.344487,-0.693278 -0.344487,-1.31147 0,-0.618191 0.114829,-1.05535 0.344487,-1.31147 0.229567,-0.256122 0.620388,-0.384137 1.17237,-0.384137zm0.731829 0.735217c-0.134608,-0.172244 -0.378643,-0.25832 -0.731829,-0.25832 -0.353278,0 -0.596122,0.086076 -0.728624,0.25832 -0.132502,0.172152 -0.198707,0.492373 -0.198707,0.960388 0,0.468107 0.0662053,0.788236 0.198707,0.960388 0.132502,0.172244 0.375346,0.25832 0.728624,0.25832 0.353186,0 0.597221,-0.086076 0.731829,-0.25832 0.1347,-0.172152 0.202095,-0.492282 0.202095,-0.960388 0,-0.468015 -0.0673957,-0.788236 -0.202095,-0.960388z"/>
  <path id="12345678910" class="fil0" d="M95.0575 36.4311l0.0397415 0.509955c0.521035,-0.392928 1.00233,-0.589438 1.44397,-0.589438 0.582844,0 0.874221,0.295863 0.874221,0.887499l0 2.41764 -0.562974 0 0 -2.25867c0,-0.211893 -0.0353461,-0.359871 -0.105947,-0.443749 -0.0706922,-0.0838783 -0.189917,-0.125817 -0.357673,-0.125817 -0.176639,0 -0.354377,0.0397415 -0.533213,0.119224 -0.178837,0.079483 -0.416187,0.209696 -0.71205,0.39073l0 2.31828 -0.562974 0 0 -3.22565 0.476898 0z"/>
  <path id="1234567891011" class="fil0" d="M99.8993 38.3519l-0.927332 -0.211893c-0.264913,-0.0618099 -0.45254,-0.161164 -0.562974,-0.298061 -0.110434,-0.136897 -0.165559,-0.337803 -0.165559,-0.602807 0,-0.357673 0.0937679,-0.597221 0.281487,-0.718643 0.187627,-0.121422 0.513343,-0.177738 0.976963,-0.168855 0.516639,0.00879074 0.969271,0.0419392 1.3578,0.0993537l-0.0463345 0.410601c-0.67121,-0.0220684 -1.07961,-0.0330568 -1.22539,-0.0330568 -0.326723,-0.00439537 -0.540905,0.0154754 -0.642457,0.0596122 -0.101551,0.0441368 -0.152373,0.161164 -0.152373,0.350989 0,0.154571 0.0342473,0.260609 0.10265,0.317932 0.0684945,0.0574145 0.191015,0.106038 0.367654,0.14578l0.940518 0.211893c0.265004,0.0662968 0.455928,0.164552 0.572955,0.294765 0.117027,0.130304 0.17554,0.327913 0.17554,0.592826 0,0.375346 -0.103749,0.623685 -0.311339,0.745198 -0.207498,0.121422 -0.562974,0.182133 -1.06634,0.182133 -0.450434,0 -0.872115,-0.0309507 -1.26513,-0.0927606l0.0397415 -0.410692c0.375346,0.0220684 0.746206,0.0309507 1.11276,0.0265554 0.375346,0 0.626981,-0.028753 0.755088,-0.0861676 0.128015,-0.0574145 0.192114,-0.178837 0.192114,-0.364266 0,-0.145688 -0.0386426,-0.246141 -0.115928,-0.301358 -0.0772853,-0.0552168 -0.208689,-0.104848 -0.394118,-0.149076z"/>
  <path id="123456789101112" class="fil0" d="M106.231 39.1467l0.0596122 0.437156c-0.366556,0.101551 -0.812503,0.152373 -1.33793,0.152373 -0.658024,0 -1.12164,-0.176639 -1.39095,-0.529917 -0.2694,-0.353186 -0.404099,-0.964784 -0.404099,-1.8347 0,-0.869917 0.1347,-1.48142 0.404099,-1.8347 0.269308,-0.353278 0.732928,-0.529917 1.39095,-0.529917 0.472411,0 0.887499,0.0441368 1.24517,0.132502l-0.0596122 0.443749c-0.397415,-0.0397415 -0.792632,-0.0596122 -1.18556,-0.0596122 -0.446039,0 -0.753989,0.133601 -0.924035,0.400711 -0.169954,0.267202 -0.255023,0.749594 -0.255023,1.44727 0,0.697674 0.0850687,1.18007 0.255023,1.44727 0.170046,0.26711 0.477997,0.400711 0.924035,0.400711 0.512152,0 0.93832,-0.0242661 1.27832,-0.0728899z"/>
  <path id="12345678910111213" class="fil0" d="M108.411 36.3516c0.556381,0 0.94821,0.128015 1.17567,0.384137 0.227369,0.256122 0.341099,0.693278 0.341099,1.31147 0,0.618191 -0.11373,1.05535 -0.341099,1.31147 -0.22746,0.256122 -0.619289,0.384137 -1.17567,0.384137 -0.551985,0 -0.942807,-0.128015 -1.17237,-0.384137 -0.229658,-0.256122 -0.344487,-0.693278 -0.344487,-1.31147 0,-0.618191 0.114829,-1.05535 0.344487,-1.31147 0.229567,-0.256122 0.620388,-0.384137 1.17237,-0.384137zm0.731829 0.735217c-0.134608,-0.172244 -0.378643,-0.25832 -0.731829,-0.25832 -0.353278,0 -0.596122,0.086076 -0.728624,0.25832 -0.132502,0.172152 -0.198707,0.492373 -0.198707,0.960388 0,0.468107 0.0662053,0.788236 0.198707,0.960388 0.132502,0.172244 0.375346,0.25832 0.728624,0.25832 0.353186,0 0.597221,-0.086076 0.731829,-0.25832 0.1347,-0.172152 0.202095,-0.492282 0.202095,-0.960388 0,-0.468015 -0.0673957,-0.788236 -0.202095,-0.960388z"/>
  <path id="1234567891011121314" class="fil0" d="M111.285 36.4311l0.0397415 0.509955c0.521035,-0.392928 1.00233,-0.589438 1.44397,-0.589438 0.582844,0 0.874221,0.295863 0.874221,0.887499l0 2.41764 -0.562974 0 0 -2.25867c0,-0.211893 -0.0353461,-0.359871 -0.105947,-0.443749 -0.0706922,-0.0838783 -0.189917,-0.125817 -0.357673,-0.125817 -0.176639,0 -0.354377,0.0397415 -0.533213,0.119224 -0.178837,0.079483 -0.416187,0.209696 -0.71205,0.39073l0 2.31828 -0.562974 0 0 -3.22565 0.476898 0z"/>
  <path id="123456789101112131415" class="fil0" d="M115.465 36.8749l0 1.89431c0,0.154571 0.0330568,0.265004 0.0993537,0.331209 0.0662053,0.0662053 0.178837,0.0993537 0.337803,0.0993537l0.490084 0 0.0662968 0.430563c-0.203194,0.0574145 -0.446039,0.086076 -0.728624,0.086076 -0.2694,0 -0.4747,-0.0750876 -0.615993,-0.225171 -0.141293,-0.150175 -0.211985,-0.366556 -0.211985,-0.649141l0 -1.9672 -0.582844 0 0 -0.410692 0.582844 -0.0264638 0 -0.960388 0.563065 0 0 0.953795 1.02659 0 0 0.443749 -1.02659 0z"/>
  <path id="12345678910111213141516" class="fil0" d="M117.326 38.8752l0.185521 0c0.079483,0 0.134608,0.0153838 0.165559,0.0463345 0.0309507,0.0309507 0.0463345,0.086076 0.0463345,0.165559l0 0.357673c0,0.079483 -0.0153838,0.1347 -0.0463345,0.165651 -0.0309507,0.0308592 -0.086076,0.0463345 -0.165559,0.0463345l-0.185521 0c-0.074996,0 -0.129114,-0.0154754 -0.162262,-0.0463345 -0.0331484,-0.0309507 -0.0496311,-0.0861676 -0.0496311,-0.165651l0 -0.357673c0,-0.079483 0.0164826,-0.134608 0.0496311,-0.165559 0.0331484,-0.0309507 0.0872664,-0.0463345 0.162262,-0.0463345z"/>
  <path id="1234567891011121314151617" class="fil0" d="M123.896 35.0865l0.655734 0c0.158966,0 0.238449,0.0816806 0.238449,0.245133l0.192114 4.32514 -0.582936 0 -0.165559 -4.08669 -0.139095 0 -1.02 3.37134c-0.0353461,0.132502 -0.119224,0.198707 -0.251727,0.198707l-0.523232 0c-0.136897,0 -0.225171,-0.0662053 -0.264913,-0.198707l-1.02009 -3.37134 -0.132411 0 -0.158966 4.08669 -0.582936 0 0.178837 -4.32514c0.00888231,-0.163453 0.0905629,-0.245133 0.245133,-0.245133l0.662327 0c0.12362,0 0.2053,0.0662968 0.245042,0.198707l0.854442 2.7885c0.0265554,0.079483 0.0607111,0.197609 0.10265,0.354377 0.0419392,0.156768 0.065198,0.243943 0.0695934,0.261616l0.119224 0c0.0132777,-0.0485322 0.0386426,-0.144589 0.0761864,-0.28808 0.0375438,-0.143491 0.0695018,-0.257221 0.0960572,-0.341099l0.85435 -2.77531c0.0353461,-0.132411 0.119224,-0.198707 0.251727,-0.198707z"/>
  <path id="123456789101112131415161718" class="fil0" d="M126.003 36.9146l-0.0530192 -0.417285c0.591727,-0.097156 1.11056,-0.145688 1.5566,-0.145688 0.375255,0 0.653445,0.0783841 0.834571,0.235152 0.181034,0.156768 0.271506,0.42278 0.271506,0.798126l0 2.27186 -0.443749 0 -0.0662053 -0.529917c-0.154571,0.154571 -0.347784,0.291468 -0.579639,0.410692 -0.231764,0.119224 -0.482392,0.178837 -0.7517,0.178837 -0.295863,0 -0.531016,-0.0783841 -0.705457,-0.235152 -0.174441,-0.156768 -0.261616,-0.378643 -0.261616,-0.665624l0 -0.35108c0,-0.251727 0.0783841,-0.447046 0.235152,-0.586141 0.156768,-0.139095 0.376445,-0.208689 0.659031,-0.208689l1.34462 0 0 -0.284783c0,-0.203103 -0.0464261,-0.346685 -0.139095,-0.430563 -0.0927606,-0.0838783 -0.265004,-0.125817 -0.516639,-0.125817 -0.317932,0 -0.779446,0.0286615 -1.38436,0.086076zm0.377544 1.6294l0 0.2053c0,0.167848 0.0397415,0.290369 0.119224,0.367654 0.079483,0.0772853 0.207498,0.115928 0.384137,0.115928 0.167848,0.00439537 0.358772,-0.0353461 0.572955,-0.119224 0.214183,-0.0839699 0.409594,-0.205392 0.586233,-0.364358l0 -0.64905 -1.24526 0c-0.150175,0.00439537 -0.257221,0.0441368 -0.321228,0.119224 -0.0640076,0.0750876 -0.0960572,0.183232 -0.0960572,0.324525z"/>
  <path id="12345678910111213141516171819" class="fil0" d="M130.096 36.4311l0.0397415 0.509955c0.521035,-0.392928 1.00233,-0.589438 1.44397,-0.589438 0.582844,0 0.874221,0.295863 0.874221,0.887499l0 2.41764 -0.562974 0 0 -2.25867c0,-0.211893 -0.0353461,-0.359871 -0.105947,-0.443749 -0.0706922,-0.0838783 -0.189917,-0.125817 -0.357673,-0.125817 -0.176639,0 -0.354377,0.0397415 -0.533213,0.119224 -0.178837,0.079483 -0.416187,0.209696 -0.71205,0.39073l0 2.31828 -0.562974 0 0 -3.22565 0.476898 0z"/>
  <path id="1234567891011121314151617181920" class="fil0" d="M133.487 36.9146l-0.0530192 -0.417285c0.591727,-0.097156 1.11056,-0.145688 1.5566,-0.145688 0.375255,0 0.653445,0.0783841 0.834571,0.235152 0.181034,0.156768 0.271506,0.42278 0.271506,0.798126l0 2.27186 -0.443749 0 -0.0662053 -0.529917c-0.154571,0.154571 -0.347784,0.291468 -0.579639,0.410692 -0.231764,0.119224 -0.482392,0.178837 -0.7517,0.178837 -0.295863,0 -0.531016,-0.0783841 -0.705457,-0.235152 -0.174441,-0.156768 -0.261616,-0.378643 -0.261616,-0.665624l0 -0.35108c0,-0.251727 0.0783841,-0.447046 0.235152,-0.586141 0.156768,-0.139095 0.376445,-0.208689 0.659031,-0.208689l1.34462 0 0 -0.284783c0,-0.203103 -0.0464261,-0.346685 -0.139095,-0.430563 -0.0927606,-0.0838783 -0.265004,-0.125817 -0.516639,-0.125817 -0.317932,0 -0.779446,0.0286615 -1.38436,0.086076zm0.377544 1.6294l0 0.2053c0,0.167848 0.0397415,0.290369 0.119224,0.367654 0.079483,0.0772853 0.207498,0.115928 0.384137,0.115928 0.167848,0.00439537 0.358772,-0.0353461 0.572955,-0.119224 0.214183,-0.0839699 0.409594,-0.205392 0.586233,-0.364358l0 -0.64905 -1.24526 0c-0.150175,0.00439537 -0.257221,0.0441368 -0.321228,0.119224 -0.0640076,0.0750876 -0.0960572,0.183232 -0.0960572,0.324525z"/>
  <path id="123456789101112131415161718192021" class="fil0" d="M140.104 36.7424l-0.476898 0.0397415c0.0882737,0.14578 0.132502,0.344487 0.132502,0.596122 0,0.36216 -0.103841,0.623776 -0.311339,0.78494 -0.20759,0.161164 -0.565263,0.241745 -1.07302,0.241745 -0.247331,0 -0.470305,-0.0220684 -0.669012,-0.0662053 -0.0838783,0.101551 -0.108144,0.212992 -0.0727983,0.334506 0.0352545,0.121422 0.134608,0.195319 0.298061,0.221875l1.20543 0.192023c0.300259,0.0442284 0.511145,0.137996 0.632567,0.281578 0.121422,0.143491 0.182133,0.352087 0.182133,0.625882 0,0.375346 -0.111441,0.635864 -0.334506,0.781552 -0.222973,0.14578 -0.623685,0.218578 -1.20213,0.218578 -0.582844,0 -0.988043,-0.0716995 -1.21541,-0.215282 -0.22746,-0.143491 -0.341099,-0.398514 -0.341099,-0.764978 0,-0.189917 0.0397415,-0.342198 0.119224,-0.457027 0.079483,-0.114829 0.214091,-0.222973 0.404008,-0.324525 -0.163361,-0.128107 -0.238449,-0.298061 -0.225171,-0.510046 0.0131861,-0.211985 0.097156,-0.377544 0.251635,-0.496768 -0.273703,-0.145688 -0.410601,-0.426076 -0.410601,-0.841164 0,-0.370951 0.10265,-0.635864 0.307951,-0.79483 0.2053,-0.158966 0.564073,-0.238449 1.07632,-0.238449 0.304746,0 0.554183,0.0264638 0.748495,0.079483l1.00672 0 -0.0330568 0.311247zm-2.39777 1.09628c0.128107,0.0904714 0.35108,0.135707 0.669012,0.135707 0.317932,0 0.540905,-0.0452357 0.669012,-0.135707 0.128015,-0.0905629 0.192023,-0.244035 0.192023,-0.460415 0,-0.216289 -0.0629087,-0.369761 -0.188726,-0.460323 -0.125909,-0.0904714 -0.349981,-0.135799 -0.672309,-0.135799 -0.317932,0 -0.540905,0.0453273 -0.669012,0.135799 -0.128015,0.0905629 -0.192023,0.244035 -0.192023,0.460323 0,0.21638 0.0640076,0.369852 0.192023,0.460415zm1.13932 1.66575l-1.09958 -0.152281c-0.225171,0.172152 -0.337803,0.377544 -0.337803,0.615993 0,0.225171 0.0662968,0.373057 0.198707,0.443749 0.132502,0.0706922 0.399612,0.105947 0.801514,0.105947 0.392928,0 0.656833,-0.0364449 0.791441,-0.109243 0.1347,-0.0728899 0.202095,-0.219677 0.202095,-0.440453 0,-0.158966 -0.0342473,-0.267202 -0.102742,-0.324616 -0.068403,-0.0574145 -0.219677,-0.103749 -0.453639,-0.139095z"/>
  <path id="12345678910111213141516171819202122" class="fil0" d="M142.74 38.3188l-1.50358 0c0.0309507,0.370859 0.121422,0.620388 0.271597,0.748403 0.150084,0.128107 0.399612,0.192114 0.748403,0.192114 0.366556,0 0.739613,-0.0264638 1.11945,-0.079483l0.0596122 0.377544c-0.287073,0.119224 -0.704358,0.178837 -1.25186,0.178837 -0.556381,0 -0.952697,-0.129114 -1.18895,-0.387434 -0.236251,-0.25832 -0.354377,-0.696666 -0.354377,-1.31486 0,-0.622586 0.114829,-1.05864 0.344396,-1.30808 0.229658,-0.249529 0.6094,-0.374247 1.13932,-0.374247 0.481293,0 0.832282,0.0871748 1.05315,0.261616 0.220776,0.174441 0.331118,0.438255 0.331118,0.791533 0.00888231,0.609308 -0.24724,0.914054 -0.768274,0.914054zm-1.51018 -0.437156l1.3644 0c0.234053,0 0.35108,-0.158966 0.35108,-0.476898 -0.00439537,-0.20759 -0.0662053,-0.355476 -0.18543,-0.443841 -0.119224,-0.0882737 -0.322419,-0.132411 -0.6094,-0.132411 -0.34,0 -0.576251,0.0739887 -0.708754,0.221875 -0.132411,0.147886 -0.203103,0.424977 -0.211893,0.831274z"/>
  <path id="1234567891011121314151617181920212223" class="fil0" d="M144.82 36.4311l0.0331484 0.509955c0.454829,-0.392928 0.894183,-0.589438 1.31806,-0.589438 0.450434,0 0.722031,0.189825 0.8147,0.569567 0.437156,-0.379742 0.869917,-0.569567 1.29819,-0.569567 0.27819,0 0.491274,0.0750876 0.639252,0.225171 0.147886,0.150175 0.221875,0.370951 0.221875,0.662327l0 2.41764 -0.556381 0 0 -2.25867c-0.00439537,-0.198707 -0.0453273,-0.343297 -0.122521,-0.433768 -0.0772853,-0.0905629 -0.204293,-0.135799 -0.380932,-0.135799 -0.154479,0 -0.303555,0.0353461 -0.447046,0.105947 -0.143491,0.0706922 -0.347784,0.203103 -0.612696,0.397415l0 2.32488 -0.543103 0 0 -2.25867c0,-0.203103 -0.0408403,-0.348791 -0.122521,-0.437156 -0.0816806,-0.0882737 -0.208689,-0.132411 -0.380841,-0.132411 -0.154571,0 -0.303647,0.0353461 -0.447137,0.105947 -0.143491,0.0706922 -0.347692,0.200905 -0.612696,0.390822l0 2.33147 -0.562974 0 0 -3.22565 0.46362 0z"/>
  <path id="123456789101112131415161718192021222324" class="fil0" d="M152.099 38.3188l-1.50358 0c0.0309507,0.370859 0.121422,0.620388 0.271597,0.748403 0.150084,0.128107 0.399612,0.192114 0.748403,0.192114 0.366556,0 0.739613,-0.0264638 1.11945,-0.079483l0.0596122 0.377544c-0.287073,0.119224 -0.704358,0.178837 -1.25186,0.178837 -0.556381,0 -0.952697,-0.129114 -1.18895,-0.387434 -0.236251,-0.25832 -0.354377,-0.696666 -0.354377,-1.31486 0,-0.622586 0.114829,-1.05864 0.344396,-1.30808 0.229658,-0.249529 0.6094,-0.374247 1.13932,-0.374247 0.481293,0 0.832282,0.0871748 1.05315,0.261616 0.220776,0.174441 0.331118,0.438255 0.331118,0.791533 0.00888231,0.609308 -0.24724,0.914054 -0.768274,0.914054zm-1.51018 -0.437156l1.3644 0c0.234053,0 0.35108,-0.158966 0.35108,-0.476898 -0.00439537,-0.20759 -0.0662053,-0.355476 -0.18543,-0.443841 -0.119224,-0.0882737 -0.322419,-0.132411 -0.6094,-0.132411 -0.34,0 -0.576251,0.0739887 -0.708754,0.221875 -0.132411,0.147886 -0.203103,0.424977 -0.211893,0.831274z"/>
  <path id="12345678910111213141516171819202122232425" class="fil0" d="M154.192 36.4311l0.0397415 0.509955c0.521035,-0.392928 1.00233,-0.589438 1.44397,-0.589438 0.582844,0 0.874221,0.295863 0.874221,0.887499l0 2.41764 -0.562974 0 0 -2.25867c0,-0.211893 -0.0353461,-0.359871 -0.105947,-0.443749 -0.0706922,-0.0838783 -0.189917,-0.125817 -0.357673,-0.125817 -0.176639,0 -0.354377,0.0397415 -0.533213,0.119224 -0.178837,0.079483 -0.416187,0.209696 -0.71205,0.39073l0 2.31828 -0.562974 0 0 -3.22565 0.476898 0z"/>
  <path id="1234567891011121314151617181920212223242526" class="fil0" d="M158.372 36.8749l0 1.89431c0,0.154571 0.0330568,0.265004 0.0993537,0.331209 0.0662053,0.0662053 0.178837,0.0993537 0.337803,0.0993537l0.490084 0 0.0662968 0.430563c-0.203194,0.0574145 -0.446039,0.086076 -0.728624,0.086076 -0.2694,0 -0.4747,-0.0750876 -0.615993,-0.225171 -0.141293,-0.150175 -0.211985,-0.366556 -0.211985,-0.649141l0 -1.9672 -0.582844 0 0 -0.410692 0.582844 -0.0264638 0 -0.960388 0.563065 0 0 0.953795 1.02659 0 0 0.443749 -1.02659 0z"/>
  <path id="123456789101112131415161718192021222324252627" class="fil0" d="M163.26 37.7227l-0.947111 -0.238449c-0.322419,-0.079483 -0.553084,-0.221875 -0.692179,-0.427267 -0.139095,-0.2053 -0.208689,-0.486787 -0.208689,-0.844461 0,-0.264913 0.0276542,-0.477997 0.0827795,-0.63916 0.0552168,-0.161164 0.150175,-0.282677 0.284875,-0.364358 0.1347,-0.0816806 0.284783,-0.135707 0.450342,-0.162262 0.165651,-0.0264638 0.387525,-0.0397415 0.665715,-0.0397415 0.538708,0.00888231 0.991339,0.0530192 1.3578,0.132502l-0.0397415 0.423879c-0.428274,-0.0220684 -0.858837,-0.0330568 -1.2916,-0.0330568 -0.194312,0 -0.337803,0.00439537 -0.430472,0.0131861 -0.0927606,0.00888231 -0.183324,0.0353461 -0.271597,0.079483 -0.0882737,0.0441368 -0.146787,0.11373 -0.17554,0.208689 -0.0286615,0.0948667 -0.043038,0.22627 -0.043038,0.394118 0,0.242844 0.043038,0.414996 0.129114,0.516548 0.0861676,0.101643 0.235152,0.178837 0.447137,0.231856l0.927332 0.231856c0.34,0.0838783 0.578449,0.227369 0.715347,0.430472 0.136806,0.203194 0.2053,0.487978 0.2053,0.854442 0,0.503453 -0.11373,0.836769 -0.341099,1.00022 -0.22746,0.163361 -0.623776,0.245042 -1.18895,0.245042 -0.481293,0 -0.953795,-0.0419392 -1.41742,-0.125817l0.0397415 -0.430563c0.74181,0.0264638 1.20763,0.0375438 1.39754,0.0331484 0.362069,0 0.606012,-0.0464261 0.731921,-0.139095 0.125817,-0.0927606 0.188726,-0.291468 0.188726,-0.596122 0,-0.251727 -0.043038,-0.427267 -0.129114,-0.52662 -0.0861676,-0.0993537 -0.235152,-0.17554 -0.447137,-0.228468z"/>
  <path id="12345678910111213141516171819202122232425262728" class="fil0" d="M168.142 36.4311l-1.2916 3.40449c-0.282586,0.759483 -0.75289,1.1547 -1.41082,1.18565l-0.0530192 -0.370951c0.251727,-0.079483 0.449335,-0.188818 0.592826,-0.327913 0.143491,-0.139095 0.259418,-0.314544 0.347784,-0.526529l0.0529276 -0.139095 -0.125817 0c-0.105947,0 -0.172244,-0.0485322 -0.198707,-0.145688l-1.17237 -3.07996 0.602715 0 0.854442 2.40436c0.0618099,0.181034 0.101551,0.311247 0.119224,0.39073l0.0927606 0c0.0353461,-0.0882737 0.0816806,-0.218578 0.139095,-0.39073l0.841164 -2.40436 0.6094 0z"/>
  <path id="1234567891011121314151617181920212223242526272829" class="fil0" d="M170.254 38.3519l-0.927332 -0.211893c-0.264913,-0.0618099 -0.45254,-0.161164 -0.562974,-0.298061 -0.110434,-0.136897 -0.165559,-0.337803 -0.165559,-0.602807 0,-0.357673 0.0937679,-0.597221 0.281487,-0.718643 0.187627,-0.121422 0.513343,-0.177738 0.976963,-0.168855 0.516639,0.00879074 0.969271,0.0419392 1.3578,0.0993537l-0.0463345 0.410601c-0.67121,-0.0220684 -1.07961,-0.0330568 -1.22539,-0.0330568 -0.326723,-0.00439537 -0.540905,0.0154754 -0.642457,0.0596122 -0.101551,0.0441368 -0.152373,0.161164 -0.152373,0.350989 0,0.154571 0.0342473,0.260609 0.10265,0.317932 0.0684945,0.0574145 0.191015,0.106038 0.367654,0.14578l0.940518 0.211893c0.265004,0.0662968 0.455928,0.164552 0.572955,0.294765 0.117027,0.130304 0.17554,0.327913 0.17554,0.592826 0,0.375346 -0.103749,0.623685 -0.311339,0.745198 -0.207498,0.121422 -0.562974,0.182133 -1.06634,0.182133 -0.450434,0 -0.872115,-0.0309507 -1.26513,-0.0927606l0.0397415 -0.410692c0.375346,0.0220684 0.746206,0.0309507 1.11276,0.0265554 0.375346,0 0.626981,-0.028753 0.755088,-0.0861676 0.128015,-0.0574145 0.192114,-0.178837 0.192114,-0.364266 0,-0.145688 -0.0386426,-0.246141 -0.115928,-0.301358 -0.0772853,-0.0552168 -0.208689,-0.104848 -0.394118,-0.149076z"/>
  <path id="123456789101112131415161718192021222324252627282930" class="fil0" d="M172.294 38.8752l0.185521 0c0.079483,0 0.134608,0.0153838 0.165559,0.0463345 0.0309507,0.0309507 0.0463345,0.086076 0.0463345,0.165559l0 0.357673c0,0.079483 -0.0153838,0.1347 -0.0463345,0.165651 -0.0309507,0.0308592 -0.086076,0.0463345 -0.165559,0.0463345l-0.185521 0c-0.074996,0 -0.129114,-0.0154754 -0.162262,-0.0463345 -0.0331484,-0.0309507 -0.0496311,-0.0861676 -0.0496311,-0.165651l0 -0.357673c0,-0.079483 0.0164826,-0.134608 0.0496311,-0.165559 0.0331484,-0.0309507 0.0872664,-0.0463345 0.162262,-0.0463345z"/>
  <g id="_229861656">
   <path id="_229862760" class="fil1" d="M31.5747 5.35493c12.3667,7.1401 10.491,3.89082 10.491,18.171 0,12.896 1.52831,11.4969 -7.28368,16.3633 -0.945646,0.522225 -2.00887,1.11578 -3.20734,1.80769 -6.52777,3.76876 -8.56465,5.54732 -10.8517,5.33735 -2.04559,-0.187719 -4.29135,-1.9662 -10.1303,-5.33735 -12.3667,-7.1401 -10.491,-3.89082 -10.491,-18.171 0,-14.2799 -1.87572,-11.031 10.491,-18.171 12.3667,-7.13982 8.6152,-7.13991 20.982,0z"/>
   <g style="clip-path:url(#id0)">
    <g>
     <path id="_2298612241" class="fil2" d="M22.8364 47.9899l-10.6642 -17.8163 3.88001 -0.864972 2.5039 -3.36621c0,0 2.47533,-8.18922 2.58429,-9.04512 0.108969,-0.855907 2.18056,2.58429 2.18056,2.58429l2.26124 9.77192 2.90735 -1.93818 5.40951 -11.2739 10.7426 23.0649 -21.8053 8.88359z"/>
    </g>
   </g>
   <path class="fil3" d="M31.5747 5.35493c12.3667,7.1401 10.491,3.89082 10.491,18.171 0,12.896 1.52831,11.4969 -7.28368,16.3633 -0.945646,0.522225 -2.00887,1.11578 -3.20734,1.80769 -6.52777,3.76876 -8.56465,5.54732 -10.8517,5.33735 -2.04559,-0.187719 -4.29135,-1.9662 -10.1303,-5.33735 -12.3667,-7.1401 -10.491,-3.89082 -10.491,-18.171 0,-14.2799 -1.87572,-11.031 10.491,-18.171 12.3667,-7.13982 8.6152,-7.13991 20.982,0z"/>
   <path id="_229861752" class="fil4" d="M33.8991 16.0415l-3.31301 13.5534c-0.100453,0.441735 -0.316284,0.788145 -0.647585,1.03914 -0.331301,0.250994 -0.727892,0.376445 -1.18968,0.376445l-4.00583 0c-0.481842,0 -0.903523,-0.150633 -1.26495,-0.451807 -0.361428,-0.301174 -0.572222,-0.692729 -0.632476,-1.17457l-1.14454 -7.55976c-0.0200539,-0.220867 -0.110434,-1.08428 -0.271048,-2.59025l-0.361428 0c-0.100361,0.983922 -0.200813,1.84725 -0.301174,2.59025l-1.14454 7.55976c-0.0602532,0.481842 -0.271048,0.873397 -0.632476,1.17457 -0.361428,0.301174 -0.783109,0.451807 -1.26495,0.451807l-3.94558 0c-0.461789,0 -0.858379,-0.125451 -1.18968,-0.376445 -0.331301,-0.250994 -0.547132,-0.597404 -0.647585,-1.03914l-3.31301 -13.5534 5.45145 0 1.50596 9.00547c0.160614,1.18464 0.260975,2.03808 0.301174,2.56012l0.361428 0c0.0602532,-0.481934 0.170687,-1.33528 0.331301,-2.56012l1.14454 -7.40913c0.0602532,-0.46188 0.266011,-0.843362 0.617366,-1.14454 0.351447,-0.301174 0.768091,-0.451807 1.24993,-0.451807l3.3131 0c0.481842,0 0.898487,0.150633 1.24993,0.451807 0.351355,0.301174 0.557113,0.692729 0.617366,1.17466l1.11441 7.379c0.0200539,0.120506 0.0752707,0.496952 0.165651,1.12943 0.0903798,0.632567 0.155669,1.10937 0.195777,1.43069l0.361428 0c0.120506,-1.12448 0.23094,-1.97783 0.331301,-2.56012l1.47584 -9.00547 5.48158 0z"/>
   <path id="_229861704" class="fil5" d="M16.0523 31.0104l-2.27241 0c-0.461789,0 -0.858379,-0.125451 -1.18968,-0.376445 -0.331301,-0.250994 -0.547132,-0.597404 -0.647585,-1.03914l-3.31301 -13.5534 5.45145 0 1.50596 9.00547c0.160614,1.18464 0.260975,2.03808 0.301174,2.56012l0.164094 0 0 3.40339z"/>
   <path id="_229862064" class="fil5" d="M26.4763 31.0104l2.27241 0c0.461789,0 0.858379,-0.125451 1.18968,-0.376445 0.331301,-0.250994 0.547132,-0.597404 0.647585,-1.03914l3.31301 -13.5534 -5.45145 0 -1.50596 9.00547c-0.160614,1.18464 -0.260975,2.03808 -0.301174,2.56012l-0.164094 0 0 3.40339z"/>
  </g>
 </g>
</svg>
